<svg width="512" height="537" viewBox="0 0 512 537" fill="none" xmlns="http://www.w3.org/2000/svg">
<g clip-path="url(#clip0_167_679)">
<path d="M266.137 444.197L250.161 444.537L242.052 444.671C239.337 444.732 236.621 444.72 233.906 444.744H233.37V444.197L233.31 430.583V429.975H233.918L250.04 430.048C255.409 430.06 260.791 430.181 266.161 430.242H266.502V430.571C266.478 432.882 266.392 435.182 266.344 437.445L266.137 444.197ZM266.137 444.197L265.966 437.323C265.905 435.06 265.832 432.821 265.808 430.583L266.137 430.911C260.767 430.972 255.385 431.106 250.015 431.106L233.894 431.179L234.503 430.571L234.442 444.185L233.894 443.637C236.548 443.661 239.203 443.649 241.869 443.71L249.881 443.844L266.137 444.197Z" fill="#EBEBEB"/>
<path d="M248.152 461.363L232.177 461.704L224.068 461.838C221.352 461.899 218.637 461.886 215.922 461.911H215.386V461.363L215.325 447.749V447.141H215.934L232.055 447.214C237.425 447.226 242.807 447.348 248.177 447.409H248.518V447.737C248.493 450.049 248.408 452.348 248.359 454.611L248.152 461.363ZM248.152 461.363L247.982 454.489C247.921 452.227 247.848 449.988 247.824 447.749L248.152 448.078C242.783 448.139 237.401 448.273 232.031 448.273L215.91 448.346L216.518 447.737L216.458 461.351L215.91 460.804C218.564 460.828 221.218 460.816 223.885 460.877L231.897 461.01L248.152 461.363Z" fill="#EBEBEB"/>
<path d="M230.229 444.197L214.254 444.537L206.144 444.671C203.429 444.732 200.714 444.72 197.998 444.744H197.463V444.197L197.402 430.583V429.975H198.011L214.132 430.048C219.502 430.06 224.884 430.181 230.253 430.242H230.594V430.571C230.57 432.882 230.485 435.182 230.436 437.445L230.229 444.197ZM230.229 444.197L230.058 437.323C229.998 435.06 229.925 432.821 229.9 430.583L230.229 430.911C224.859 430.972 219.477 431.106 214.108 431.106L197.986 431.179L198.595 430.571L198.534 444.185L197.986 443.637C200.641 443.661 203.295 443.649 205.962 443.71L213.974 443.844L230.229 444.197Z" fill="#EBEBEB"/>
<path d="M492.335 69.2495L476.36 69.5902L468.251 69.724C465.535 69.7848 462.82 69.7727 460.105 69.797H459.569V69.2495L459.508 55.6356V55.0273H460.117L476.238 55.1003C481.608 55.1125 486.99 55.2342 492.36 55.295H492.701V55.6235C492.676 57.935 492.591 60.2344 492.542 62.4973L492.335 69.2495ZM492.335 69.2495L492.165 62.3757C492.104 60.1128 492.031 57.8742 492.007 55.6356L492.335 55.9641C486.966 56.025 481.584 56.1588 476.214 56.1588L460.093 56.2318L460.701 55.6235L460.641 69.2374L460.093 68.6899C462.747 68.7142 465.401 68.7021 468.068 68.7629L476.08 68.8967L492.335 69.2495Z" fill="#EBEBEB"/>
<path d="M510.332 86.416L494.357 86.7567L486.247 86.8905C483.532 86.9513 480.817 86.9392 478.101 86.9635H477.566V86.416L477.505 72.8022V72.1938H478.113L494.235 72.2668C499.605 72.279 504.987 72.4007 510.356 72.4615H510.697V72.79C510.673 75.1016 510.588 77.4009 510.539 79.6638L510.332 86.416ZM510.332 86.416L510.161 79.5422C510.101 77.2793 510.027 75.0407 510.003 72.8022L510.332 73.1306C504.962 73.1915 499.58 73.3253 494.21 73.3253L478.089 73.3983L478.698 72.79L478.637 86.4039L478.089 85.8564C480.744 85.8807 483.398 85.8686 486.065 85.9294L494.077 86.0632L510.332 86.416Z" fill="#EBEBEB"/>
<path d="M34.4345 69.2495L18.4592 69.5902L10.3498 69.724C7.63449 69.7848 4.91918 69.7727 2.20388 69.797H1.66812V69.2495L1.58289 55.6356V55.0273H2.1917L18.3131 55.1003C23.6828 55.1125 29.0647 55.2342 34.4345 55.295H34.7754V55.6235C34.751 57.935 34.6658 60.2344 34.6171 62.4973L34.4345 69.2495ZM34.4345 69.2495L34.264 62.3757C34.2031 60.1128 34.1301 57.8742 34.1057 55.6356L34.4345 55.9641C29.0647 56.025 23.6828 56.1588 18.3131 56.1588L2.1917 56.244L2.80051 55.6356L2.72746 69.2495L2.1917 68.7021C4.84613 68.7264 7.50055 68.7142 10.1672 68.7751L18.1791 68.9089L34.4345 69.2495Z" fill="#EBEBEB"/>
<path d="M37.6612 0H36.4436V106.624H37.6612V0Z" fill="#C7C7C7"/>
<path d="M74.117 142.319L71.1338 148.865H2.97101L0 142.319L29.0161 122.245H45.1009L74.117 142.319Z" fill="#EBEBEB"/>
<path d="M47.11 102.913L45.1009 122.245H29.016L27.007 102.913H47.11Z" fill="#DBDBDB"/>
<path d="M74.1048 142.319L71.1338 148.865H2.97101L0 142.319H74.1048Z" fill="#DBDBDB"/>
<path d="M117.233 0H116.016V85.5034H117.233V0Z" fill="#C7C7C7"/>
<path d="M153.677 121.199L150.694 127.744H82.5429L79.5719 121.199L108.588 101.125H124.661L153.677 121.199Z" fill="#EBEBEB"/>
<path d="M126.67 81.793L124.661 101.125H108.588L106.567 81.793H126.67Z" fill="#DBDBDB"/>
<path d="M153.677 121.199L150.694 127.745H82.5308L79.5598 121.199H153.677Z" fill="#DBDBDB"/>
<path d="M462.163 293.495H335.493V468.651H462.163V293.495Z" fill="#DBDBDB"/>
<path d="M468.299 286.999H329.356V293.495H468.299V286.999Z" fill="#EBEBEB"/>
<path d="M512 286.999H468.299V293.495H512V286.999Z" fill="#DBDBDB"/>
<path d="M505.084 293.495H462.163V468.651H505.084V293.495Z" fill="#EBEBEB"/>
<path d="M448.513 374.558H349.13V318.436H448.513V374.558ZM349.435 374.254H448.209V318.74H349.435V374.254Z" fill="#A6A6A6"/>
<path d="M404.301 334.835H384.953V345.943H404.301V334.835Z" fill="#A6A6A6"/>
<path d="M410.17 345.262H390.517V335.517H410.17V345.262ZM390.822 344.958H409.865V335.821H390.822V344.958Z" fill="#A6A6A6"/>
<path d="M448.513 445.073H349.13V388.951H448.513V445.073ZM349.435 444.769H448.209V389.255H349.435V444.769Z" fill="#A6A6A6"/>
<path d="M404.301 405.351H384.953V416.458H404.301V405.351Z" fill="#A6A6A6"/>
<path d="M410.17 415.777H390.517V406.032H410.17V415.777ZM390.822 415.473H409.865V406.348H390.822V415.473Z" fill="#A6A6A6"/>
<path d="M483.641 54.6987H355.559V126.308H483.641V54.6987Z" fill="#DBDBDB"/>
<path d="M331.596 126.309H355.559V101.368L331.596 126.309Z" fill="#DBDBDB"/>
<path d="M456.379 92.0854H370.682V93.6305H456.379V92.0854Z" fill="white"/>
<path d="M438.76 100.419H370.682V101.964H438.76V100.419Z" fill="white"/>
<path d="M443.898 75.4302H370.682V76.9753H443.898V75.4302Z" fill="white"/>
<path d="M466.266 67.0962H370.682V68.6413H466.266V67.0962Z" fill="white"/>
<path d="M445.822 108.753H370.682V110.298H445.822V108.753Z" fill="white"/>
<path d="M57.7886 336.527C58.7627 343.206 58.3974 350.092 56.7657 356.625C55.9986 359.679 54.9515 362.635 53.6852 365.507C52.0901 369.181 50.4097 372.77 50.8116 376.797C51.2012 377.052 49.8618 377.016 49.8253 376.626C39.0614 370.507 25.2657 369.388 16.9859 359.375C13.0651 354.642 11.0804 348.632 10.1428 342.622C9.12 336.077 8.83994 328.838 10.5324 322.39C11.9571 316.939 15.1473 311.672 20.2735 309.007C25.5701 306.258 32.4984 306.489 38.0752 308.216C50.1053 311.939 56.0961 324.896 57.7886 336.527Z" fill="#C9CA3D"/>
<path d="M63.3166 416.105C61.8433 411.214 60.3821 406.324 58.8723 401.445C55.9256 391.895 52.845 382.369 49.4478 372.964C47.4144 367.331 45.2714 361.747 43.0066 356.224C43.3962 352.756 43.5423 349.289 44.2851 345.834C45.1861 341.661 46.489 337.646 47.7066 333.558C47.7797 333.303 47.3779 333.181 47.2683 333.412C44.8574 339.033 41.7037 346.223 41.6185 352.878C38.9884 346.625 36.1879 340.456 33.156 334.385C32.9855 329.203 32.7907 324.19 33.6309 318.983C33.6674 318.752 33.3143 318.679 33.2656 318.91C32.4619 323.29 31.8896 327.974 32.2184 332.512C29.9049 327.95 27.4697 323.448 24.8761 319.007C24.6448 318.606 24.0847 319.02 24.2917 319.409C28.3342 327.183 32.0845 335.128 35.6034 343.182C30.7329 338.863 24.8274 335.59 18.7393 333.424C18.4714 333.327 18.2644 333.716 18.5445 333.826C25.4728 336.721 31.3052 340.821 36.7845 345.895C39.3172 351.783 41.7281 357.732 44.0172 363.718C37.2837 357.124 28.0663 352.781 19.1654 350.457C18.861 350.372 18.7758 350.846 19.068 350.931C29.3813 354.034 37.3933 359.873 45.2348 366.893C46.1481 369.314 47.0369 371.735 47.9136 374.169C51.2377 383.378 54.3914 392.661 57.4111 401.968C58.8601 406.433 60.2847 410.91 61.685 415.387C63.1948 420.205 64.3638 425.303 66.3241 429.95C66.5068 430.4 67.3104 430.291 67.213 429.756C66.3485 425.145 64.6682 420.607 63.3166 416.105Z" fill="#263238"/>
<path d="M45.4662 327.11C43.5423 330.067 42.2516 333.303 41.5941 336.758C41.5819 336.843 41.7159 336.904 41.7524 336.807C42.9457 333.558 44.3581 330.42 45.9532 327.341C46.1115 327.025 45.6488 326.831 45.4662 327.11Z" fill="#263238"/>
<path d="M26.2764 349.508C23.488 347.926 19.7986 346.673 16.6206 346.26C16.5354 346.247 16.4745 346.381 16.5719 346.418C18.1183 347.063 19.7499 347.513 21.3206 348.109C22.9035 348.717 24.4378 349.447 26.0328 350.007C26.3616 350.128 26.593 349.69 26.2764 349.508Z" fill="#263238"/>
<path d="M20.8701 322.56C19.896 321.915 18.8488 321.088 17.7651 320.638C17.5947 320.565 17.4486 320.784 17.5825 320.905C18.447 321.696 19.6403 322.292 20.6387 322.888C20.8336 323.022 21.0649 322.694 20.8701 322.56Z" fill="#263238"/>
<path d="M94.0617 373.037C86.3176 375.337 78.5247 377.466 70.7806 379.729C70.1109 379.936 57.0093 354.849 61.7458 341.929C66.1171 329.969 76.1382 321.015 88.0831 316.952C93.6111 315.078 100.418 313.497 106.262 314.786C111.462 315.93 115.127 320.188 116.819 325.067C119.12 331.709 118.353 339.617 117.099 346.394C115.93 352.671 113.629 358.864 109.477 363.803C105.361 368.706 100.101 371.249 94.0617 373.037Z" fill="#C9CA3D"/>
<path d="M105.3 349.204C100.369 351.686 95.3646 353.487 90.1044 355.178C86.8046 356.236 83.1152 357.185 79.9616 358.852C83.237 351.564 86.829 344.423 90.6402 337.354C95.6446 335.906 100.917 333.644 104.692 330.103C104.899 329.909 104.631 329.617 104.412 329.775C100.284 332.695 95.7299 334.447 91.1638 336.417C92.1987 334.52 93.2337 332.609 94.2931 330.712C94.5853 330.188 93.8669 329.665 93.5016 330.176C89.4347 336.028 85.7818 342.245 82.4942 348.657C81.6784 342.999 81.3862 337.488 81.7028 331.734C81.715 331.588 81.4958 331.575 81.4714 331.721C80.5095 337.804 80.5582 344.252 81.6663 350.323C78.9509 355.749 76.467 361.297 74.2509 366.918C73.362 363.536 72.2175 360.214 71.4504 356.808C70.3423 351.905 69.8309 346.917 70.3423 341.904C70.3545 341.758 70.1353 341.746 70.111 341.892C68.6133 350.773 69.977 360.811 73.362 369.254C72.0714 372.636 70.8294 376.03 69.697 379.437C63.9133 396.859 60.3456 414.816 59.408 433.162C59.3837 433.588 60.0168 433.625 60.0656 433.211C62.172 415.217 65.8858 397.321 71.6087 380.118C73.8613 373.366 76.4426 366.808 79.2797 360.385C83.858 359.034 88.4119 357.197 92.9171 355.64C97.3006 354.119 101.794 352.367 105.483 349.484C105.617 349.35 105.459 349.119 105.3 349.204Z" fill="#263238"/>
<path d="M112.521 341.916C107.784 343.595 103.291 345.955 98.5547 347.671C98.3356 347.756 98.4573 348.097 98.6887 348.06C103.693 347.026 108.673 345.481 112.704 342.196C112.862 342.062 112.691 341.855 112.521 341.916Z" fill="#263238"/>
<path d="M73.8247 331.697C73.8856 331.441 73.5203 331.308 73.4351 331.563C72.1322 335.931 71.2433 340.554 72.4975 345.019C72.5462 345.189 72.8263 345.201 72.8384 344.995C73.0698 340.505 72.8141 336.125 73.8247 331.697Z" fill="#263238"/>
<path d="M93.4042 321.611C91.8213 323.643 91.249 326.514 91.3464 329.033C91.3586 329.203 91.6143 329.3 91.663 329.093C92.2352 326.599 93.2093 324.324 93.9765 321.891C94.086 321.55 93.6355 321.319 93.4042 321.611Z" fill="#263238"/>
<path d="M1.88734 384.096C4.1643 391.298 9.55839 401.263 18.1061 401.335C23.6463 401.384 29.2352 400.727 34.7876 400.654C40.7418 400.557 46.696 400.581 52.638 400.934C53.1251 400.958 51.9196 383.135 37.6247 374.461C33.6187 372.027 28.7238 371.261 24.1821 370.275C18.9828 369.144 13.6253 368.39 8.29206 368.621C5.00446 368.755 2.27698 369.448 1.10806 372.806C-0.121746 376.322 0.803651 380.677 1.88734 384.096Z" fill="#C9CA3D"/>
<path d="M8.03636 375.081C11.5066 375.969 15.0134 377.003 18.5079 378.111C17.5704 377.149 16.6693 376.164 15.6222 375.3C14.1245 374.059 12.4807 373.062 10.8734 371.979C10.7395 371.894 10.8247 371.626 10.9952 371.699C14.161 372.94 17.4608 375.543 19.4212 378.403C23.7681 379.802 28.0663 381.359 32.2184 383.05C35.1529 384.254 37.8682 385.69 40.4131 387.357C39.4998 385.593 38.6719 383.78 37.4542 382.211C35.5547 379.753 32.9855 378.378 30.5016 376.638C30.2702 376.468 30.465 376.14 30.7207 376.261C36.334 378.755 39.7434 382.795 41.8742 388.342C44.8087 390.435 47.4875 392.868 49.9836 395.703C59.4446 406.433 66.8965 420.728 66.9208 435.303C66.9208 435.656 66.3607 435.754 66.2998 435.389C63.621 420.911 57.8982 407.905 48.2546 396.676C47.5727 395.885 46.8787 395.131 46.1724 394.413C43.5667 394.145 40.9975 393.793 38.3553 393.829C35.3112 393.878 32.2915 394.279 29.2596 394.523C24.2673 394.924 18.7515 394.985 14.2463 392.479C14.0514 392.369 14.1854 392.029 14.4045 392.102C24.4378 395.751 34.9703 391.128 45.0279 393.294C40.7296 389.182 35.8591 386.079 30.185 383.731C29.8806 383.61 29.564 383.488 29.2596 383.366C22.8183 384.145 16.0118 385.812 9.74103 383.719C9.55839 383.658 9.63145 383.378 9.82627 383.427C15.89 384.936 21.6981 383.038 27.6767 382.734C21.1624 380.203 14.5263 378.184 7.98765 375.665C7.46407 375.434 7.45189 374.935 8.03636 375.081Z" fill="#263238"/>
<path d="M5.19928 381.42C8.34076 381.931 11.4092 381.955 14.575 382.125C14.6481 382.125 14.6724 382.235 14.5872 382.259C11.5066 382.953 8.13376 382.527 5.12622 381.651C4.98011 381.615 5.04099 381.396 5.19928 381.42Z" fill="#263238"/>
<path d="M26.3738 375.239C28.0785 375.836 29.6736 377.283 31.013 378.463C31.1713 378.609 30.9521 378.901 30.7816 378.768C29.9902 378.196 29.1865 377.66 28.3707 377.125C27.628 376.639 26.7878 376.261 26.1059 375.702C25.8868 375.531 26.1181 375.154 26.3738 375.239Z" fill="#263238"/>
<path d="M76.8566 398.44C76.747 398.671 77.088 398.903 77.2219 398.647C77.2341 398.647 77.2341 398.647 77.2341 398.635C77.2828 398.696 77.3559 398.769 77.4533 398.781C83.237 400.022 89.0329 401.299 94.914 401.822C99.6384 402.248 105.093 402.504 109.233 399.766C114.847 396.056 118.536 386.116 115.492 379.814C111.912 372.32 101.1 376.383 95.6811 379.047C87.3526 383.111 80.6556 389.985 76.8566 398.44Z" fill="#C9CA3D"/>
<path d="M72.668 401.895C75.846 398.781 79.3649 396.202 83.103 393.963C85.66 389.62 89.5808 386.018 93.6842 383.196C93.8912 383.05 94.0617 383.378 93.879 383.524C90.3479 386.237 87.5961 389.425 84.966 392.892C89.1425 390.569 93.5503 388.646 98.0555 386.943C99.6262 384.072 102.171 381.383 105.081 379.911C105.142 379.887 105.215 379.96 105.154 380.008C102.622 381.992 100.576 384.06 98.8104 386.663C101.465 385.678 104.156 384.753 106.835 383.865C107.078 383.78 107.163 384.157 106.944 384.242C102.171 386.104 97.2884 388.075 92.5518 390.337C98.5304 391.14 103.912 391.323 109.988 390.289C110.147 390.264 110.22 390.496 110.061 390.532C104.192 392.199 97.471 392.515 91.5655 390.812C88.5458 392.296 85.5992 393.914 82.7864 395.727C85.1365 395.423 87.4987 395.837 89.873 396.311C94.0251 397.138 98.0798 397.868 102.329 397.722C102.488 397.722 102.524 397.978 102.366 398.002C95.1332 399.243 88.3023 395.958 81.1427 396.822C78.4882 398.647 75.9799 400.654 73.6786 402.917C69.1734 407.334 65.5692 412.614 62.793 418.259C59.7733 424.39 58.1417 430.899 55.7064 437.226C55.5968 437.506 55.2072 437.396 55.2559 437.104C57.3259 424.585 63.5601 410.801 72.668 401.895Z" fill="#263238"/>
<path d="M94.4635 384.765C94.8897 383.902 95.6202 383.172 96.3143 382.527C96.9231 381.955 97.6537 381.225 98.4451 380.933C98.5182 380.909 98.5547 381.006 98.5182 381.055C97.9216 381.724 97.1058 382.223 96.4604 382.867C95.8151 383.512 95.2793 384.279 94.634 384.911C94.5487 384.984 94.4148 384.875 94.4635 384.765Z" fill="#263238"/>
<path d="M106.384 388.647C107.456 388.379 108.588 388.403 109.684 388.172C110.792 387.953 111.815 387.552 112.874 387.211C113.02 387.162 113.093 387.369 112.971 387.442C111.218 388.488 108.43 389.377 106.384 388.975C106.214 388.951 106.226 388.683 106.384 388.647Z" fill="#263238"/>
<path d="M42.8848 421.677L43.8224 432.444L47.0491 468.797H75.5416L79.5597 432.444L80.753 421.677H42.8848Z" fill="#455A64"/>
<path d="M42.8848 421.677L43.8224 432.444H79.5597L80.753 421.677H42.8848Z" fill="#263238"/>
<path d="M40.0526 427.482H83.5706V418.747H40.0526V427.482Z" fill="#455A64"/>
<path d="M0.52356 468.651L64.449 468.359L128.387 468.249L256.262 468.042L384.125 468.249L448.062 468.347L512 468.651L448.062 468.943L384.125 469.052L256.262 469.259L128.387 469.052L64.449 468.943L0.52356 468.651Z" fill="#263238"/>
<path d="M322.342 91.6353H125.513C114.518 91.6353 105.605 100.699 105.605 111.904V516.743C105.605 527.924 114.518 537.012 125.513 537.012H322.342C333.338 537.012 342.275 527.924 342.275 516.743V111.904C342.275 100.699 333.338 91.6353 322.342 91.6353ZM329.819 504.225C329.819 514.882 321.831 523.496 311.98 523.496H135.899C126.024 523.496 118.037 514.87 118.037 504.225V127.245C118.037 105.541 126.024 104.483 135.899 104.483H171.174C173.22 104.483 174.9 106.806 174.9 109.69V110.931C174.9 117.695 178.602 117.707 183.143 117.707H264.712C269.303 117.707 272.98 117.683 272.98 110.931V109.69C272.98 106.806 274.636 104.483 276.718 104.483H311.98C321.831 104.483 329.819 107.366 329.819 127.245V504.225Z" fill="#263238"/>
<path d="M329.819 127.245V504.224C329.819 514.882 321.831 523.495 311.98 523.495H135.899C126.024 523.495 118.037 514.87 118.037 504.224V127.245C118.037 105.541 126.024 104.482 135.899 104.482H171.174C173.22 104.482 174.9 106.806 174.9 109.69V110.93C174.9 117.695 178.602 117.707 183.143 117.707H264.712C269.303 117.707 272.98 117.683 272.98 110.93V109.69C272.98 106.806 274.636 104.482 276.718 104.482H311.98C321.831 104.482 329.819 107.366 329.819 127.245Z" fill="white"/>
<path d="M165.086 112.95C164.976 113.06 164.854 113.181 164.745 113.291C164.684 113.352 164.611 113.425 164.55 113.486C163.637 112.597 162.541 112.123 161.262 112.123C159.984 112.123 158.9 112.597 157.975 113.486C157.914 113.425 157.853 113.352 157.792 113.291C157.683 113.181 157.573 113.06 157.451 112.95H157.439C157.439 112.95 157.439 112.95 157.439 112.938C157.451 112.926 157.451 112.926 157.464 112.914C157.61 112.792 157.744 112.658 157.89 112.537C158.194 112.281 158.535 112.074 158.888 111.904C159.314 111.697 159.753 111.539 160.215 111.466C160.435 111.429 160.654 111.405 160.873 111.381C160.946 111.369 161.433 111.369 161.445 111.369C161.591 111.381 161.75 111.381 161.896 111.405C162.31 111.454 162.711 111.551 163.113 111.697C163.393 111.807 163.673 111.928 163.929 112.074C164.209 112.232 164.465 112.415 164.708 112.622C164.842 112.719 164.964 112.829 165.086 112.95C165.086 112.938 165.086 112.95 165.086 112.95Z" fill="white"/>
<path d="M159.059 114.544C158.876 114.361 158.705 114.191 158.523 114.009C159.132 113.412 159.862 113.023 160.715 112.914C161.993 112.743 163.077 113.133 164.014 114.009C163.832 114.191 163.649 114.361 163.479 114.544C162.87 113.948 162.139 113.631 161.275 113.631C160.41 113.631 159.68 113.96 159.059 114.544Z" fill="white"/>
<path d="M162.931 115.092C162.748 115.274 162.578 115.445 162.395 115.627C162.09 115.323 161.713 115.165 161.263 115.165C160.824 115.165 160.447 115.335 160.13 115.639C159.947 115.457 159.777 115.286 159.594 115.104C160.459 114.204 161.981 114.131 162.931 115.092Z" fill="white"/>
<path d="M161.75 116.114C161.75 116.381 161.53 116.6 161.263 116.6C160.995 116.6 160.775 116.381 160.775 116.114C160.775 115.846 160.995 115.627 161.263 115.627C161.53 115.627 161.75 115.846 161.75 116.114Z" fill="white"/>
<path d="M131.857 113.972C131.857 113.194 132.49 112.573 133.257 112.573C134.036 112.573 134.657 113.206 134.657 113.972C134.657 114.751 134.024 115.371 133.257 115.371C132.478 115.384 131.857 114.751 131.857 113.972Z" fill="white"/>
<path d="M136.277 113.972C136.277 113.194 136.91 112.573 137.677 112.573C138.456 112.573 139.077 113.206 139.077 113.972C139.077 114.751 138.444 115.371 137.677 115.371C136.898 115.384 136.277 114.751 136.277 113.972Z" fill="white"/>
<path d="M140.697 113.972C140.697 113.194 141.33 112.573 142.097 112.573C142.876 112.573 143.497 113.206 143.497 113.972C143.497 114.751 142.864 115.371 142.097 115.371C141.318 115.384 140.697 114.751 140.697 113.972Z" fill="white"/>
<path d="M145.117 113.972C145.117 113.194 145.75 112.573 146.517 112.573C147.296 112.573 147.917 113.206 147.917 113.972C147.917 114.751 147.284 115.371 146.517 115.371C145.738 115.384 145.117 114.751 145.117 113.972Z" fill="white"/>
<path d="M149.537 113.972C149.537 113.194 150.17 112.573 150.937 112.573C151.716 112.573 152.337 113.206 152.337 113.972C152.337 114.751 151.704 115.371 150.937 115.371C150.158 115.384 149.537 114.751 149.537 113.972Z" fill="white"/>
<path d="M313.929 117.038H302.507V111.746H313.929V117.038ZM303.092 116.454H313.356V112.33H303.092V116.454Z" fill="white"/>
<path d="M310.824 112.646H303.457V116.138H310.824V112.646Z" fill="white"/>
<path d="M314.951 112.975H313.941V115.809H314.951V112.975Z" fill="white"/>
<path d="M235.063 109.276H212.817C212.062 109.276 211.441 108.655 211.441 107.901C211.441 107.147 212.062 106.526 212.817 106.526H235.063C235.818 106.526 236.439 107.147 236.439 107.901C236.439 108.668 235.818 109.276 235.063 109.276Z" fill="white"/>
<path d="M153.835 233.894C153.835 229.137 157.768 225.341 162.578 225.341C164.587 225.341 166.511 226.022 167.984 227.19C168.605 227.64 168.69 228.516 168.24 229.112C167.789 229.684 166.912 229.806 166.316 229.331C165.293 228.553 163.99 228.054 162.565 228.054C160.861 228.054 159.363 228.699 158.304 229.781C157.196 230.852 156.526 232.288 156.526 233.906C156.526 235.463 157.196 236.911 158.304 237.981C159.375 239.076 160.861 239.709 162.565 239.709C163.747 239.709 164.867 239.356 165.816 238.809V235.56H162.431C161.701 235.56 161.08 234.94 161.08 234.21C161.08 233.456 161.701 232.884 162.431 232.884H167.107C167.132 232.884 167.132 232.884 167.132 232.884C167.156 232.884 167.156 232.884 167.156 232.884C167.911 232.884 168.532 233.456 168.532 234.21V239.441C168.532 239.612 168.483 239.697 168.459 239.843C168.434 239.891 168.434 239.916 168.41 239.964V239.989C168.337 240.208 168.191 240.39 167.959 240.561C166.462 241.716 164.599 242.41 162.578 242.41C157.768 242.398 153.835 238.626 153.835 233.894Z" fill="#A6A6A6"/>
<path d="M172.781 236.473C172.806 233.249 175.314 230.548 178.565 230.548C181.646 230.548 184.093 232.847 184.276 236.047C184.276 236.071 184.276 236.12 184.276 236.169C184.276 236.217 184.276 236.339 184.251 236.388C184.178 236.959 183.679 237.337 183.022 237.337H175.484C175.606 237.884 175.862 238.492 176.288 238.894C176.787 239.466 177.737 239.891 178.565 239.964C179.417 240.037 180.44 239.818 181.025 239.368C181.524 238.845 182.498 238.918 182.802 239.295C183.107 239.624 183.35 240.342 182.802 240.84C181.646 241.911 180.245 242.398 178.553 242.398C175.326 242.373 172.806 239.697 172.781 236.473ZM175.363 235.317H182.072C181.84 234.368 180.623 232.969 178.565 232.811C176.556 232.896 175.558 234.344 175.363 235.317Z" fill="#A6A6A6"/>
<path d="M192.446 231.85C192.446 232.555 191.825 233.152 191.119 233.152H190.522V239.758C191.253 239.758 191.825 240.354 191.825 241.084C191.825 241.814 191.253 242.386 190.522 242.386C189.073 242.386 187.892 241.206 187.892 239.758V233.152H187.21C186.48 233.152 185.907 232.555 185.907 231.85C185.907 231.12 186.48 230.548 187.21 230.548H187.892V227.117C187.892 226.387 188.489 225.815 189.219 225.815C189.95 225.815 190.522 226.387 190.522 227.117V230.548H191.119C191.825 230.548 192.446 231.12 192.446 231.85Z" fill="#A6A6A6"/>
<path d="M206.29 227.592C206.29 228.297 205.742 228.893 205.012 228.893C204.306 228.893 203.733 228.297 203.733 227.592V227.093C203.733 226.387 204.306 225.815 205.012 225.815C205.742 225.815 206.29 226.387 206.29 227.093V227.592ZM206.29 231.874V241.108C206.29 241.814 205.742 242.386 205.012 242.386C204.306 242.386 203.733 241.814 203.733 241.108V231.874C203.733 231.12 204.306 230.572 205.012 230.572C205.755 230.572 206.29 231.12 206.29 231.874Z" fill="#A6A6A6"/>
<path d="M220.257 235.475V241.132C220.257 241.814 219.709 242.386 219.027 242.386C218.357 242.386 217.773 241.814 217.773 241.132V235.475C217.773 234.149 216.652 233.079 215.313 233.079C213.986 233.079 212.939 234.149 212.939 235.475V241.132C212.939 241.205 212.939 241.278 212.89 241.376C212.768 241.948 212.245 242.398 211.636 242.398C210.93 242.398 210.382 241.826 210.382 241.145V235.487V231.813C210.382 231.12 210.93 230.56 211.636 230.56C212.135 230.56 212.586 230.84 212.793 231.29C213.499 230.84 214.375 230.56 215.301 230.56C218.053 230.548 220.257 232.799 220.257 235.475Z" fill="#A6A6A6"/>
<path d="M237.364 231.85C237.364 232.555 236.743 233.152 236.037 233.152H235.44V239.758C236.171 239.758 236.743 240.354 236.743 241.084C236.743 241.814 236.171 242.386 235.44 242.386C233.991 242.386 232.81 241.206 232.81 239.758V233.152H232.128C231.398 233.152 230.826 232.555 230.826 231.85C230.826 231.12 231.398 230.548 232.128 230.548H232.81V227.117C232.81 226.387 233.407 225.815 234.138 225.815C234.868 225.815 235.44 226.387 235.44 227.117V230.548H236.037C236.743 230.548 237.364 231.12 237.364 231.85Z" fill="#A6A6A6"/>
<path d="M242.247 240.67C241.224 239.624 240.615 238.164 240.615 236.497C240.615 234.891 241.236 233.492 242.247 232.348C243.318 231.229 244.694 230.548 246.326 230.548C247.885 230.548 249.309 231.229 250.283 232.348C251.355 233.48 251.939 234.879 251.939 236.497C251.939 238.152 251.343 239.624 250.283 240.67C249.309 241.777 247.885 242.471 246.326 242.471C244.694 242.471 243.318 241.777 242.247 240.67ZM243.197 236.497C243.197 237.519 243.501 238.346 244.049 239.003C244.646 239.575 245.425 239.879 246.326 239.879C247.154 239.879 247.909 239.575 248.506 239.003C249.102 238.334 249.431 237.507 249.431 236.497C249.431 235.524 249.102 234.672 248.506 234.027C247.909 233.504 247.154 233.127 246.326 233.127C245.425 233.127 244.646 233.504 244.049 234.027C243.501 234.672 243.197 235.524 243.197 236.497Z" fill="#A6A6A6"/>
<path d="M260.292 242.398C257.589 242.398 255.361 240.171 255.361 237.47V231.813C255.361 231.144 255.933 230.56 256.615 230.56C257.321 230.56 257.869 231.156 257.869 231.813V237.47C257.869 238.821 258.941 239.891 260.292 239.891C261.668 239.891 262.752 238.821 262.776 237.47V231.813C262.776 231.144 263.3 230.56 264.006 230.56C264.676 230.56 265.284 231.156 265.284 231.813V237.47C265.297 240.171 263.02 242.398 260.292 242.398Z" fill="#A6A6A6"/>
<path d="M269.315 236.497C269.315 233.2 272.067 230.572 275.342 230.548C276.767 230.548 278.094 231.071 279.117 231.85C279.665 232.275 279.762 233.078 279.372 233.602C278.897 234.173 278.143 234.271 277.595 233.845C276.974 233.395 276.219 233.091 275.342 233.091C273.418 233.091 271.835 234.672 271.835 236.497C271.835 238.322 273.418 239.879 275.342 239.879C276.194 239.879 276.974 239.575 277.595 239.125C278.118 238.723 278.897 238.821 279.372 239.38C279.75 239.904 279.652 240.658 279.117 241.132C278.094 241.862 276.767 242.385 275.342 242.385C272.067 242.398 269.315 239.745 269.315 236.497Z" fill="#A6A6A6"/>
<path d="M286.313 241.096C286.313 241.826 285.716 242.398 284.986 242.398C284.389 242.398 283.89 241.972 283.731 241.425C283.707 241.327 283.683 241.206 283.683 241.096V227.117C283.683 226.387 284.279 225.815 284.986 225.815C285.716 225.815 286.313 226.387 286.313 227.117V231.242C287.068 230.84 287.92 230.56 288.845 230.56C291.719 230.56 294.008 232.908 294.008 235.743V241.096C294.008 241.826 293.436 242.398 292.705 242.398C291.975 242.398 291.403 241.826 291.403 241.096V235.743C291.403 234.344 290.27 233.212 288.845 233.188C287.445 233.212 286.337 234.344 286.313 235.743V241.096Z" fill="#A6A6A6"/>
<path d="M308.291 255.841H139.564V423.551H308.291V255.841Z" fill="white"/>
<path d="M308.291 423.551L139.564 423.624H139.491V423.551L139.418 255.841V255.695H139.564L308.291 255.768H308.364V255.841L308.291 423.551ZM308.291 423.551L308.218 255.841L308.291 255.914L139.564 255.987L139.711 255.841L139.638 423.551L139.564 423.478L308.291 423.551Z" fill="#DBDBDB"/>
<path d="M155.406 276.792C155.406 277.01 155.223 277.193 155.016 277.193C154.785 277.193 154.614 277.01 154.614 276.792V272.546C154.614 272.546 154.614 272.546 154.614 272.533C154.602 272.412 154.663 272.278 154.773 272.193C154.955 272.071 155.199 272.108 155.333 272.278L157.695 275.551V272.533C157.695 272.327 157.865 272.144 158.085 272.144C158.304 272.144 158.486 272.327 158.486 272.533V276.779C158.486 276.998 158.304 277.181 158.085 277.181C157.963 277.181 157.853 277.12 157.78 277.035C157.768 277.023 157.756 277.011 157.744 276.986L155.406 273.738V276.792Z" fill="#A6A6A6"/>
<path d="M163.247 275.38V276.816C163.247 277.022 163.077 277.205 162.858 277.205C162.663 277.205 162.517 277.071 162.48 276.889C162.2 277.083 161.871 277.205 161.506 277.205C161.007 277.205 160.581 276.998 160.264 276.67C159.948 276.329 159.765 275.879 159.765 275.38C159.765 274.881 159.948 274.419 160.264 274.09C160.581 273.75 161.007 273.543 161.506 273.543C161.871 273.543 162.2 273.665 162.48 273.859C162.529 273.677 162.675 273.543 162.858 273.543C163.065 273.543 163.247 273.713 163.247 273.932V275.38ZM162.48 275.38C162.48 275.076 162.371 274.808 162.2 274.626C162.03 274.431 161.774 274.322 161.518 274.322C161.25 274.322 161.007 274.419 160.836 274.626C160.666 274.808 160.556 275.076 160.556 275.38C160.556 275.684 160.654 275.94 160.836 276.134C161.007 276.317 161.25 276.414 161.518 276.414C161.774 276.414 162.017 276.317 162.2 276.134C162.371 275.94 162.48 275.672 162.48 275.38Z" fill="#A6A6A6"/>
<path d="M167.74 275.052C167.74 275.064 167.74 275.064 167.74 275.076V276.804C167.74 277.01 167.57 277.193 167.351 277.193C167.144 277.193 166.961 277.022 166.961 276.804V275.076C166.961 275.064 166.961 275.064 166.961 275.052C166.949 274.65 166.62 274.322 166.206 274.322C165.804 274.322 165.463 274.662 165.463 275.076V276.804C165.463 276.816 165.451 276.84 165.451 276.852C165.451 276.864 165.451 276.876 165.451 276.876C165.439 276.889 165.439 276.901 165.427 276.925C165.427 276.937 165.427 276.949 165.427 276.962C165.366 277.095 165.22 277.193 165.062 277.193C165.037 277.193 165.013 277.181 164.989 277.181C164.818 277.132 164.672 276.986 164.672 276.804V275.076C164.672 275.064 164.672 275.064 164.672 275.064V273.932C164.672 273.701 164.842 273.543 165.062 273.543C165.22 273.543 165.354 273.628 165.415 273.762C165.646 273.628 165.914 273.543 166.194 273.543C166.657 273.543 167.071 273.738 167.339 274.042C167.606 273.725 168.033 273.543 168.483 273.543C169.323 273.543 170.005 274.236 170.005 275.076V276.804C170.005 277.01 169.835 277.193 169.615 277.193C169.408 277.193 169.226 277.022 169.226 276.804V275.076C169.226 274.662 168.885 274.322 168.483 274.322C168.093 274.322 167.753 274.65 167.74 275.052Z" fill="#A6A6A6"/>
<path d="M171.381 275.368C171.393 274.37 172.16 273.543 173.171 273.543C174.121 273.543 174.876 274.249 174.936 275.234C174.936 275.246 174.936 275.258 174.936 275.271C174.936 275.283 174.936 275.319 174.924 275.331C174.9 275.502 174.754 275.623 174.547 275.623H172.221C172.258 275.794 172.343 275.976 172.465 276.11C172.623 276.28 172.915 276.414 173.171 276.439C173.439 276.463 173.755 276.39 173.938 276.256C174.096 276.098 174.389 276.122 174.486 276.232C174.583 276.329 174.656 276.548 174.486 276.706C174.133 277.035 173.695 277.193 173.171 277.193C172.172 277.193 171.393 276.366 171.381 275.368ZM172.185 275.015H174.255C174.182 274.723 173.804 274.285 173.171 274.236C172.55 274.261 172.246 274.711 172.185 275.015Z" fill="#A6A6A6"/>
<path opacity="0.2" d="M294.02 281.634H153.835V293.423H294.02V281.634Z" fill="#FFC727"/>
<path d="M154.59 308.715V304.396C154.59 304.165 154.76 303.995 154.992 303.995H155.004C155.004 303.995 155.004 303.995 155.016 303.995H157.39C157.597 303.995 157.792 304.165 157.792 304.396C157.792 304.627 157.597 304.81 157.39 304.81H155.406V306.148H157.11C157.33 306.148 157.512 306.343 157.512 306.55C157.512 306.781 157.33 306.963 157.11 306.963H155.406V308.314H157.39C157.597 308.314 157.792 308.496 157.792 308.727C157.792 308.946 157.597 309.129 157.39 309.129H155.016C155.004 309.129 155.004 309.117 155.004 309.117L154.992 309.129C154.773 309.117 154.59 308.934 154.59 308.715Z" fill="#A6A6A6"/>
<path d="M161.908 306.975C161.908 306.988 161.908 306.988 161.908 307V308.727C161.908 308.934 161.737 309.117 161.518 309.117C161.311 309.117 161.129 308.946 161.129 308.727V307C161.129 306.988 161.129 306.988 161.129 306.975C161.116 306.574 160.788 306.245 160.374 306.245C159.972 306.245 159.631 306.586 159.631 307V308.727C159.631 308.739 159.619 308.764 159.619 308.776C159.619 308.788 159.619 308.8 159.619 308.8C159.607 308.812 159.607 308.825 159.594 308.849C159.594 308.861 159.594 308.873 159.594 308.885C159.534 309.019 159.387 309.117 159.229 309.117C159.205 309.117 159.18 309.104 159.156 309.104C158.986 309.056 158.839 308.91 158.839 308.727V307C158.839 306.988 158.839 306.988 158.839 306.988V305.856C158.839 305.625 159.01 305.467 159.229 305.467C159.387 305.467 159.521 305.552 159.582 305.686C159.814 305.552 160.081 305.467 160.362 305.467C160.824 305.467 161.238 305.661 161.506 305.966C161.774 305.649 162.188 305.467 162.651 305.467C163.491 305.467 164.173 306.148 164.173 307V308.727C164.173 308.934 164.002 309.117 163.783 309.117C163.576 309.117 163.393 308.946 163.393 308.727V307C163.393 306.586 163.052 306.245 162.651 306.245C162.261 306.233 161.932 306.562 161.908 306.975Z" fill="#A6A6A6"/>
<path d="M168.909 307.292V308.727C168.909 308.934 168.739 309.117 168.52 309.117C168.325 309.117 168.179 308.983 168.142 308.8C167.862 308.995 167.533 309.117 167.168 309.117C166.669 309.117 166.243 308.91 165.926 308.581C165.61 308.241 165.427 307.79 165.427 307.292C165.427 306.793 165.61 306.331 165.926 306.002C166.243 305.661 166.669 305.455 167.168 305.455C167.533 305.455 167.862 305.576 168.142 305.771C168.191 305.588 168.337 305.455 168.52 305.455C168.727 305.455 168.909 305.625 168.909 305.844V307.292ZM168.13 307.292C168.13 306.988 168.02 306.72 167.85 306.537C167.679 306.343 167.424 306.233 167.168 306.233C166.9 306.233 166.657 306.331 166.486 306.537C166.316 306.72 166.206 306.988 166.206 307.292C166.206 307.596 166.304 307.851 166.486 308.046C166.657 308.228 166.9 308.326 167.168 308.326C167.424 308.326 167.667 308.228 167.85 308.046C168.02 307.851 168.13 307.596 168.13 307.292Z" fill="#A6A6A6"/>
<path d="M171.138 304.542C171.138 304.761 170.967 304.944 170.748 304.944C170.529 304.944 170.358 304.761 170.358 304.542V304.384C170.358 304.165 170.529 303.995 170.748 303.995C170.979 303.995 171.138 304.165 171.138 304.384V304.542ZM171.138 305.868V308.715C171.138 308.934 170.967 309.117 170.748 309.117C170.529 309.117 170.358 308.946 170.358 308.715V305.868C170.358 305.637 170.529 305.467 170.748 305.467C170.967 305.467 171.138 305.637 171.138 305.868Z" fill="#A6A6A6"/>
<path d="M172.696 303.995C172.927 303.995 173.11 304.177 173.11 304.396V308.715C173.11 308.934 172.927 309.117 172.696 309.117C172.477 309.117 172.294 308.934 172.294 308.715V304.396C172.294 304.177 172.477 303.995 172.696 303.995Z" fill="#A6A6A6"/>
<path d="M179.357 307.292V308.727C179.357 308.934 179.186 309.117 178.967 309.117C178.772 309.117 178.626 308.983 178.589 308.8C178.309 308.995 177.981 309.117 177.615 309.117C177.116 309.117 176.69 308.91 176.373 308.581C176.057 308.241 175.874 307.79 175.874 307.292C175.874 306.793 176.057 306.331 176.373 306.002C176.69 305.661 177.116 305.455 177.615 305.455C177.981 305.455 178.309 305.576 178.589 305.771C178.638 305.588 178.784 305.455 178.967 305.455C179.174 305.455 179.357 305.625 179.357 305.844V307.292ZM178.577 307.292C178.577 306.988 178.468 306.72 178.297 306.537C178.127 306.343 177.871 306.233 177.615 306.233C177.347 306.233 177.104 306.331 176.933 306.537C176.763 306.72 176.653 306.988 176.653 307.292C176.653 307.596 176.751 307.851 176.933 308.046C177.104 308.228 177.347 308.326 177.615 308.326C177.871 308.326 178.115 308.228 178.297 308.046C178.468 307.851 178.577 307.596 178.577 307.292Z" fill="#A6A6A6"/>
<path d="M184.105 308.715C184.105 308.922 183.935 309.117 183.716 309.117C183.521 309.117 183.362 308.983 183.326 308.8C183.046 308.995 182.693 309.117 182.328 309.117C181.341 309.117 180.55 308.277 180.55 307.292C180.55 306.294 181.341 305.455 182.328 305.455C182.681 305.455 183.034 305.576 183.314 305.759V304.384C183.314 304.177 183.484 303.995 183.716 303.995C183.935 303.995 184.105 304.177 184.105 304.384V307.28C184.105 307.28 184.105 307.28 184.105 307.292V308.715ZM182.328 306.258C182.06 306.258 181.816 306.367 181.633 306.562C181.451 306.744 181.341 307.012 181.341 307.304C181.341 307.584 181.451 307.839 181.633 308.034C181.816 308.228 182.06 308.338 182.328 308.338C182.595 308.338 182.827 308.228 183.009 308.034C183.192 307.851 183.302 307.584 183.302 307.304C183.302 307.012 183.192 306.744 183.009 306.562C182.827 306.367 182.595 306.258 182.328 306.258Z" fill="#A6A6A6"/>
<path d="M187.868 305.844C187.868 306.051 187.697 306.233 187.478 306.233C187.308 306.233 187.161 306.282 187.04 306.367C186.906 306.452 186.796 306.574 186.699 306.72C186.528 306.951 186.431 307.231 186.394 307.328V308.715C186.394 308.922 186.212 309.104 185.993 309.104C185.786 309.104 185.603 308.934 185.603 308.715V305.832C185.603 305.625 185.773 305.454 185.993 305.454C186.212 305.454 186.394 305.625 186.394 305.832V305.88C186.443 305.832 186.492 305.771 186.553 305.734C186.796 305.576 187.113 305.442 187.478 305.454C187.697 305.467 187.868 305.637 187.868 305.844Z" fill="#A6A6A6"/>
<path d="M188.209 307.28C188.221 306.282 188.988 305.455 189.999 305.455C190.948 305.455 191.703 306.16 191.764 307.146C191.764 307.158 191.764 307.17 191.764 307.182C191.764 307.194 191.764 307.231 191.752 307.243C191.728 307.413 191.581 307.535 191.374 307.535H189.049C189.085 307.705 189.171 307.888 189.292 308.022C189.451 308.192 189.743 308.326 189.999 308.35C190.266 308.374 190.571 308.301 190.766 308.168C190.924 308.009 191.216 308.034 191.314 308.143C191.411 308.241 191.484 308.46 191.314 308.618C190.96 308.946 190.522 309.104 189.999 309.104C188.988 309.104 188.209 308.277 188.209 307.28ZM189 306.927H191.07C190.997 306.635 190.62 306.197 189.986 306.148C189.365 306.185 189.061 306.623 189 306.927Z" fill="#A6A6A6"/>
<path d="M192.738 308.07C192.872 307.9 193.128 307.876 193.286 308.009C193.481 308.168 193.81 308.338 194.09 308.326C194.285 308.326 194.467 308.265 194.589 308.192C194.686 308.107 194.723 308.034 194.723 307.973C194.723 307.936 194.711 307.924 194.699 307.9C194.686 307.876 194.662 307.851 194.601 307.815C194.504 307.742 194.285 307.657 194.017 307.608H194.005C193.773 307.559 193.554 307.511 193.371 307.413C193.177 307.316 192.994 307.182 192.872 306.988C192.787 306.854 192.75 306.696 192.75 306.525C192.75 306.185 192.945 305.905 193.177 305.722C193.432 305.552 193.737 305.455 194.078 305.455C194.589 305.455 194.942 305.698 195.173 305.856C195.344 305.978 195.405 306.209 195.295 306.391C195.173 306.562 194.942 306.623 194.759 306.489C194.528 306.331 194.321 306.221 194.09 306.221C193.907 306.221 193.749 306.282 193.651 306.355C193.554 306.416 193.53 306.489 193.53 306.525C193.53 306.55 193.53 306.562 193.542 306.586C193.554 306.598 193.566 306.635 193.627 306.659C193.724 306.72 193.907 306.793 194.163 306.829L194.175 306.842H194.187C194.431 306.89 194.65 306.951 194.869 307.048C195.064 307.134 195.259 307.279 195.393 307.474C195.478 307.62 195.527 307.79 195.527 307.961C195.527 308.314 195.332 308.618 195.064 308.812C194.796 308.995 194.467 309.104 194.114 309.104C193.542 309.092 193.103 308.837 192.811 308.593C192.629 308.472 192.604 308.228 192.738 308.07Z" fill="#A6A6A6"/>
<path d="M196.269 308.07C196.403 307.9 196.659 307.876 196.817 308.009C197.012 308.168 197.341 308.338 197.621 308.326C197.816 308.326 197.998 308.265 198.12 308.192C198.218 308.107 198.254 308.034 198.254 307.973C198.254 307.936 198.242 307.924 198.23 307.9C198.218 307.876 198.193 307.851 198.132 307.815C198.035 307.742 197.816 307.657 197.548 307.608H197.536C197.304 307.559 197.085 307.511 196.902 307.413C196.708 307.316 196.525 307.182 196.403 306.988C196.318 306.854 196.281 306.696 196.281 306.525C196.281 306.185 196.476 305.905 196.708 305.722C196.963 305.552 197.268 305.455 197.609 305.455C198.12 305.455 198.473 305.698 198.705 305.856C198.875 305.978 198.936 306.209 198.826 306.391C198.705 306.562 198.473 306.623 198.291 306.489C198.059 306.331 197.852 306.221 197.621 306.221C197.438 306.221 197.28 306.282 197.183 306.355C197.085 306.416 197.061 306.489 197.061 306.525C197.061 306.55 197.061 306.562 197.073 306.586C197.085 306.598 197.097 306.635 197.158 306.659C197.256 306.72 197.438 306.793 197.694 306.829L197.706 306.842H197.718C197.962 306.89 198.181 306.951 198.4 307.048C198.595 307.134 198.79 307.279 198.924 307.474C199.009 307.62 199.058 307.79 199.058 307.961C199.058 308.314 198.863 308.618 198.595 308.812C198.327 308.995 197.998 309.104 197.645 309.104C197.073 309.092 196.635 308.837 196.342 308.593C196.16 308.472 196.135 308.228 196.269 308.07Z" fill="#A6A6A6"/>
<path opacity="0.2" d="M294.02 313.545H153.835V325.334H294.02V313.545Z" fill="#FFC727"/>
<path d="M158.158 336.6L156.66 338.656V340.627C156.66 340.858 156.489 341.028 156.258 341.028C156.051 341.028 155.856 340.858 155.856 340.627V338.656L154.371 336.6C154.237 336.43 154.273 336.174 154.456 336.04C154.639 335.907 154.882 335.943 155.016 336.126L156.27 337.841L157.524 336.126C157.658 335.943 157.914 335.907 158.085 336.04C158.243 336.174 158.279 336.418 158.158 336.6Z" fill="#A6A6A6"/>
<path d="M158.462 340.493C158.145 340.177 157.963 339.714 157.963 339.203C157.963 338.704 158.158 338.279 158.462 337.926C158.791 337.585 159.217 337.366 159.716 337.366C160.203 337.366 160.642 337.573 160.934 337.926C161.263 338.279 161.445 338.704 161.445 339.203C161.445 339.714 161.263 340.164 160.934 340.493C160.629 340.834 160.191 341.053 159.716 341.053C159.217 341.053 158.791 340.834 158.462 340.493ZM158.754 339.203C158.754 339.52 158.852 339.775 159.022 339.982C159.205 340.152 159.448 340.25 159.728 340.25C159.984 340.25 160.215 340.152 160.398 339.982C160.581 339.775 160.678 339.52 160.678 339.203C160.678 338.899 160.581 338.644 160.398 338.437C160.215 338.279 159.984 338.157 159.728 338.157C159.448 338.157 159.205 338.279 159.022 338.437C158.852 338.644 158.754 338.911 158.754 339.203Z" fill="#A6A6A6"/>
<path d="M164.039 341.028C163.199 341.028 162.517 340.347 162.517 339.507V337.756C162.517 337.549 162.687 337.366 162.906 337.366C163.126 337.366 163.296 337.549 163.296 337.756V339.507C163.296 339.921 163.625 340.25 164.039 340.25C164.465 340.25 164.806 339.921 164.806 339.507V337.756C164.806 337.549 164.964 337.366 165.183 337.366C165.39 337.366 165.573 337.549 165.573 337.756V339.507C165.573 340.347 164.879 341.028 164.039 341.028Z" fill="#A6A6A6"/>
<path d="M169.323 337.756C169.323 337.963 169.153 338.145 168.934 338.145C168.763 338.145 168.617 338.194 168.495 338.279C168.361 338.364 168.252 338.486 168.154 338.632C167.984 338.863 167.886 339.143 167.85 339.24V340.627C167.85 340.834 167.667 341.016 167.448 341.016C167.241 341.016 167.058 340.846 167.058 340.627V337.744C167.058 337.537 167.229 337.366 167.448 337.366C167.667 337.366 167.85 337.537 167.85 337.744V337.792C167.899 337.744 167.947 337.683 168.008 337.646C168.252 337.488 168.568 337.354 168.934 337.366C169.153 337.379 169.323 337.549 169.323 337.756Z" fill="#A6A6A6"/>
<path d="M175.533 338.887C175.533 338.899 175.533 338.899 175.533 338.911V340.639C175.533 340.846 175.363 341.028 175.143 341.028C174.936 341.028 174.754 340.858 174.754 340.639V338.911C174.754 338.899 174.754 338.899 174.754 338.887C174.742 338.485 174.413 338.157 173.999 338.157C173.597 338.157 173.256 338.498 173.256 338.911V340.639C173.256 340.651 173.244 340.675 173.244 340.688C173.244 340.7 173.244 340.712 173.244 340.712C173.232 340.724 173.232 340.736 173.22 340.761C173.22 340.773 173.22 340.785 173.22 340.797C173.159 340.931 173.013 341.028 172.854 341.028C172.83 341.028 172.806 341.016 172.781 341.016C172.611 340.967 172.465 340.821 172.465 340.639V338.911C172.465 338.899 172.465 338.899 172.465 338.899V337.768C172.465 337.537 172.635 337.366 172.854 337.366C173.013 337.366 173.147 337.451 173.207 337.585C173.439 337.451 173.707 337.366 173.987 337.366C174.449 337.366 174.863 337.561 175.131 337.877C175.399 337.561 175.813 337.366 176.276 337.366C177.116 337.366 177.798 338.06 177.798 338.899V340.627C177.798 340.834 177.627 341.016 177.408 341.016C177.189 341.016 177.019 340.846 177.019 340.627V338.899C177.019 338.486 176.678 338.145 176.276 338.145C175.874 338.157 175.545 338.485 175.533 338.887Z" fill="#A6A6A6"/>
<path d="M179.174 339.203C179.186 338.206 179.953 337.378 180.964 337.378C181.913 337.378 182.668 338.084 182.729 339.07C182.729 339.082 182.729 339.094 182.729 339.106C182.729 339.118 182.729 339.155 182.717 339.167C182.693 339.337 182.547 339.459 182.34 339.459H180.014C180.051 339.629 180.136 339.812 180.258 339.945C180.416 340.116 180.708 340.25 180.964 340.274C181.232 340.298 181.548 340.225 181.731 340.091C181.889 339.933 182.181 339.958 182.279 340.067C182.376 340.164 182.449 340.383 182.279 340.542C181.926 340.87 181.487 341.028 180.964 341.028C179.965 341.016 179.186 340.201 179.174 339.203ZM179.977 338.838H182.047C181.974 338.546 181.597 338.108 180.964 338.06C180.343 338.096 180.038 338.546 179.977 338.838Z" fill="#A6A6A6"/>
<path d="M183.716 339.982C183.85 339.812 184.105 339.787 184.264 339.921C184.458 340.079 184.787 340.25 185.067 340.237C185.262 340.237 185.445 340.177 185.566 340.104C185.664 340.018 185.7 339.945 185.7 339.885C185.7 339.848 185.688 339.836 185.676 339.812C185.664 339.787 185.639 339.763 185.579 339.726C185.481 339.653 185.262 339.568 184.994 339.52H184.982C184.751 339.471 184.531 339.422 184.349 339.325C184.154 339.228 183.971 339.094 183.837 338.899C183.752 338.765 183.716 338.607 183.716 338.437C183.716 338.096 183.91 337.816 184.142 337.634C184.397 337.464 184.702 337.366 185.043 337.366C185.542 337.366 185.907 337.61 186.139 337.768C186.309 337.889 186.37 338.121 186.26 338.303C186.139 338.473 185.907 338.534 185.712 338.4C185.481 338.242 185.274 338.133 185.043 338.133C184.86 338.133 184.702 338.194 184.604 338.267C184.507 338.327 184.483 338.4 184.483 338.437C184.483 338.461 184.483 338.473 184.495 338.498C184.507 338.51 184.519 338.546 184.58 338.571C184.677 338.632 184.86 338.704 185.116 338.741L185.128 338.753H185.14C185.384 338.802 185.603 338.863 185.822 338.96C186.017 339.045 186.212 339.191 186.346 339.398C186.431 339.544 186.48 339.714 186.48 339.885C186.48 340.237 186.285 340.542 186.017 340.736C185.749 340.919 185.42 341.028 185.067 341.028C184.495 341.016 184.057 340.761 183.764 340.517C183.606 340.396 183.582 340.14 183.716 339.982Z" fill="#A6A6A6"/>
<path d="M187.235 339.982C187.368 339.812 187.624 339.787 187.782 339.921C187.977 340.079 188.306 340.25 188.586 340.237C188.781 340.237 188.964 340.177 189.085 340.104C189.183 340.018 189.219 339.945 189.219 339.885C189.219 339.848 189.207 339.836 189.195 339.812C189.183 339.787 189.158 339.763 189.098 339.726C189 339.653 188.781 339.568 188.513 339.52H188.501C188.27 339.471 188.05 339.422 187.868 339.325C187.673 339.228 187.49 339.094 187.368 338.899C187.283 338.765 187.247 338.607 187.247 338.437C187.247 338.096 187.442 337.816 187.673 337.634C187.929 337.464 188.233 337.366 188.574 337.366C189.073 337.366 189.438 337.61 189.67 337.768C189.84 337.889 189.901 338.121 189.792 338.303C189.67 338.473 189.438 338.534 189.256 338.4C189.024 338.242 188.817 338.133 188.586 338.133C188.403 338.133 188.245 338.194 188.148 338.267C188.05 338.327 188.026 338.4 188.026 338.437C188.026 338.461 188.026 338.473 188.038 338.498C188.05 338.51 188.063 338.546 188.123 338.571C188.221 338.632 188.403 338.704 188.659 338.741L188.671 338.753H188.684C188.927 338.802 189.146 338.863 189.365 338.96C189.56 339.045 189.755 339.191 189.889 339.398C189.974 339.544 190.023 339.714 190.023 339.885C190.023 340.237 189.828 340.542 189.56 340.736C189.292 340.919 188.964 341.028 188.61 341.028C188.038 341.016 187.6 340.761 187.308 340.517C187.125 340.396 187.101 340.14 187.235 339.982Z" fill="#A6A6A6"/>
<path d="M194.114 339.203V340.639C194.114 340.846 193.944 341.028 193.724 341.028C193.53 341.028 193.384 340.894 193.347 340.712C193.067 340.907 192.738 341.028 192.373 341.028C191.874 341.028 191.448 340.821 191.131 340.493C190.814 340.152 190.632 339.702 190.632 339.203C190.632 338.704 190.814 338.242 191.131 337.914C191.448 337.573 191.874 337.366 192.373 337.366C192.738 337.366 193.067 337.488 193.347 337.683C193.396 337.5 193.542 337.366 193.724 337.366C193.931 337.366 194.114 337.537 194.114 337.768V339.203ZM193.335 339.203C193.335 338.899 193.225 338.632 193.055 338.449C192.884 338.254 192.629 338.145 192.373 338.145C192.105 338.145 191.862 338.242 191.691 338.449C191.521 338.632 191.411 338.899 191.411 339.203C191.411 339.507 191.508 339.763 191.691 339.958C191.862 340.14 192.105 340.25 192.373 340.25C192.629 340.25 192.884 340.152 193.055 339.958C193.225 339.775 193.335 339.507 193.335 339.203Z" fill="#A6A6A6"/>
<path d="M199.07 339.228V340.59C199.07 341.551 198.291 342.342 197.316 342.342C197.049 342.342 196.769 342.281 196.549 342.16C196.355 342.075 196.269 341.831 196.379 341.637C196.476 341.442 196.695 341.369 196.902 341.454C197.024 341.515 197.17 341.551 197.316 341.551C197.791 341.551 198.181 341.211 198.278 340.773C198.011 340.955 197.682 341.065 197.316 341.065C196.829 341.065 196.391 340.858 196.074 340.505C195.758 340.189 195.563 339.726 195.563 339.215C195.563 338.717 195.758 338.254 196.074 337.914C196.391 337.585 196.842 337.366 197.316 337.366C197.694 337.366 198.035 337.488 198.303 337.67C198.339 337.5 198.498 337.366 198.692 337.366C198.912 337.366 199.082 337.537 199.082 337.756V339.228H199.07ZM198.291 339.215C198.291 338.924 198.169 338.644 198.01 338.473C197.816 338.267 197.597 338.157 197.316 338.157C197.061 338.157 196.817 338.267 196.647 338.473C196.476 338.644 196.355 338.924 196.355 339.215C196.355 339.52 196.476 339.799 196.647 339.97C196.817 340.164 197.061 340.274 197.316 340.274C197.597 340.274 197.828 340.177 198.01 339.97C198.169 339.799 198.291 339.52 198.291 339.215Z" fill="#A6A6A6"/>
<path d="M200.373 339.203C200.385 338.206 201.152 337.378 202.163 337.378C203.112 337.378 203.867 338.084 203.928 339.07C203.928 339.082 203.928 339.094 203.928 339.106C203.928 339.118 203.928 339.155 203.916 339.167C203.892 339.337 203.746 339.459 203.539 339.459H201.213C201.249 339.629 201.335 339.812 201.456 339.945C201.615 340.116 201.907 340.25 202.163 340.274C202.431 340.298 202.747 340.225 202.93 340.091C203.088 339.933 203.38 339.958 203.478 340.067C203.575 340.164 203.648 340.383 203.478 340.542C203.125 340.87 202.686 341.028 202.163 341.028C201.152 341.016 200.373 340.201 200.373 339.203ZM201.164 338.838H203.234C203.161 338.546 202.784 338.108 202.15 338.06C201.529 338.096 201.225 338.546 201.164 338.838Z" fill="#A6A6A6"/>
<path opacity="0.2" d="M294.02 345.469H153.835V405.631H294.02V345.469Z" fill="#FFC727"/>
<path d="M225.821 200.242C224.494 198.222 223.751 195.959 223.751 193.563C223.751 185.095 233.054 178.233 244.524 178.233C255.994 178.233 265.297 185.095 265.297 193.563C265.297 202.03 255.994 208.892 244.524 208.892C238.959 208.892 233.918 207.286 230.192 204.646L223.033 206.459L225.821 200.242Z" fill="#C9CA3D"/>
<path d="M231.775 176.98C233.431 174.462 234.357 171.64 234.357 168.647C234.357 158.086 222.753 149.534 208.458 149.534C194.151 149.534 182.559 158.099 182.559 168.647C182.559 179.207 194.151 187.76 208.458 187.76C215.398 187.76 221.681 185.752 226.32 182.467L235.246 184.73L231.775 176.98Z" fill="white"/>
<path d="M231.775 176.98C233.285 174.632 234.198 171.883 234.247 169.097C234.271 166.311 233.529 163.537 232.068 161.189C229.157 156.444 224.226 153.208 218.966 151.541C213.681 149.838 207.995 149.522 202.54 150.47C197.097 151.383 191.825 153.78 187.916 157.648C185.98 159.583 184.446 161.931 183.643 164.522C182.839 167.102 182.754 169.936 183.533 172.54C184.288 175.156 185.798 177.528 187.697 179.487C189.609 181.458 191.91 183.039 194.382 184.256C196.854 185.497 199.533 186.3 202.248 186.811C204.963 187.309 207.752 187.541 210.528 187.37C216.056 187.09 221.584 185.448 226.174 182.309L226.259 182.248L226.345 182.273L235.246 184.645L235.124 184.779L231.775 176.98ZM231.775 176.98L235.331 184.706L235.416 184.888L235.209 184.84L226.259 182.674L226.43 182.638C221.815 185.935 216.202 187.65 210.576 188.015C204.951 188.356 199.167 187.455 194.041 184.974C191.496 183.733 189.097 182.102 187.101 180.058C185.104 178.027 183.509 175.533 182.693 172.771C181.853 170.009 181.913 166.992 182.778 164.243C183.643 161.481 185.274 159.023 187.295 157.016C189.317 154.996 191.728 153.402 194.297 152.186C196.866 150.957 199.606 150.13 202.394 149.668C205.182 149.205 208.032 149.035 210.856 149.242C213.681 149.473 216.47 150.02 219.161 150.921C221.839 151.821 224.409 153.086 226.686 154.765C228.963 156.432 230.984 158.512 232.384 160.982C233.821 163.427 234.503 166.286 234.418 169.097C234.332 171.931 233.334 174.669 231.775 176.98Z" fill="#DBDBDB"/>
<path d="M260.012 441.144H187.831V463.006H260.012V441.144Z" fill="#C9CA3D"/>
<path d="M206.96 454.271C207.228 453.954 207.703 453.906 208.032 454.173C208.677 454.696 209.785 455.317 210.82 455.293C211.551 455.293 212.208 455.074 212.646 454.757C213.085 454.441 213.28 454.076 213.28 453.711C213.28 453.516 213.231 453.395 213.146 453.249C213.06 453.103 212.926 452.957 212.707 452.811C212.281 452.531 211.563 452.288 210.71 452.129H210.686C210.004 451.996 209.359 451.825 208.799 451.558C208.239 451.29 207.764 450.925 207.435 450.426C207.216 450.073 207.094 449.672 207.094 449.234C207.094 448.358 207.593 447.604 208.263 447.105C208.945 446.606 209.846 446.326 210.796 446.326C212.196 446.326 213.231 447.007 213.974 447.494C214.315 447.725 214.412 448.2 214.181 448.528C213.961 448.881 213.499 448.978 213.146 448.747C212.403 448.248 211.684 447.81 210.796 447.81C210.138 447.81 209.554 448.017 209.164 448.309C208.774 448.601 208.604 448.918 208.604 449.222C208.604 449.392 208.628 449.514 208.701 449.635C208.774 449.757 208.908 449.879 209.091 450.013C209.468 450.28 210.126 450.511 210.917 450.657H210.942C211.684 450.803 212.379 450.998 212.951 451.266C213.547 451.558 214.071 451.935 214.412 452.482C214.631 452.835 214.765 453.273 214.765 453.723C214.765 454.66 214.241 455.463 213.511 455.986C212.793 456.509 211.843 456.813 210.808 456.813C209.225 456.801 207.898 456.01 207.07 455.353C206.765 455.074 206.717 454.599 206.96 454.271Z" fill="white"/>
<path d="M216.36 453.163C216.372 451.18 217.919 449.514 219.928 449.514C221.827 449.514 223.325 450.925 223.447 452.896C223.447 452.908 223.447 452.945 223.447 452.969C223.447 452.993 223.447 453.066 223.435 453.103C223.386 453.455 223.081 453.687 222.68 453.687H218.04C218.114 454.027 218.272 454.404 218.54 454.648C218.844 455.001 219.429 455.256 219.94 455.305C220.464 455.353 221.097 455.22 221.462 454.94C221.766 454.623 222.363 454.66 222.558 454.891C222.753 455.098 222.899 455.536 222.558 455.84C221.839 456.497 220.987 456.801 219.94 456.801C217.919 456.801 216.372 455.147 216.36 453.163ZM217.955 452.458H222.083C221.937 451.874 221.194 451.01 219.916 450.913C218.686 450.961 218.065 451.85 217.955 452.458Z" fill="white"/>
<path d="M231.861 452.555V456.047C231.861 456.473 231.52 456.826 231.106 456.826C230.692 456.826 230.326 456.473 230.326 456.047V452.555C230.326 451.74 229.644 451.083 228.804 451.083C227.988 451.083 227.343 451.74 227.343 452.555V456.047C227.343 456.096 227.343 456.132 227.319 456.193C227.246 456.546 226.929 456.826 226.54 456.826C226.101 456.826 225.76 456.473 225.76 456.047V452.555V450.292C225.76 449.866 226.101 449.514 226.54 449.514C226.844 449.514 227.124 449.684 227.258 449.964C227.696 449.684 228.232 449.514 228.804 449.514C230.497 449.514 231.861 450.901 231.861 452.555Z" fill="white"/>
<path d="M241.054 456.022C241.054 456.448 240.7 456.813 240.262 456.813C239.873 456.813 239.556 456.533 239.483 456.181C238.923 456.558 238.229 456.813 237.498 456.813C235.526 456.813 233.955 455.147 233.955 453.176C233.955 451.18 235.526 449.514 237.498 449.514C238.217 449.514 238.911 449.745 239.459 450.122V447.385C239.459 446.959 239.812 446.594 240.262 446.594C240.7 446.594 241.054 446.959 241.054 447.385V453.163C241.054 453.163 241.054 453.163 241.054 453.176V456.022ZM237.498 451.107C236.975 451.107 236.487 451.326 236.122 451.704C235.757 452.069 235.538 452.592 235.538 453.176C235.538 453.735 235.757 454.258 236.122 454.623C236.487 455.001 236.975 455.22 237.498 455.22C238.034 455.22 238.509 455.001 238.874 454.623C239.239 454.258 239.459 453.735 239.459 453.176C239.459 452.592 239.239 452.069 238.874 451.704C238.509 451.326 238.046 451.107 237.498 451.107Z" fill="white"/>
<path d="M358.019 524.688C355.693 523.021 310.215 460.183 309.996 456.692C309.898 455.378 318.677 448.224 329.526 439.89C331.864 438.077 363.973 401.287 363.973 401.287L393.72 442.141L358.969 480.306C358.969 480.306 365.605 512.145 365.434 516.001C365.264 519.834 360.345 526.343 358.019 524.688Z" fill="#AD6359"/>
<path d="M358.007 524.688C355.693 523.021 310.215 460.183 309.996 456.692C309.898 455.366 318.677 448.224 329.526 439.89C330.342 439.258 334.811 434.318 340.29 428.174L369.72 468.505L358.969 480.306C358.969 480.306 365.593 512.145 365.422 515.989C365.264 519.834 360.345 526.343 358.007 524.688Z" fill="#EBEBEB"/>
<path d="M358.068 524.944C355.73 523.265 309.996 460.086 309.777 456.57C309.691 455.268 318.3 448.565 328.37 439.671C330.805 437.53 332.96 434.769 335.688 432.725L365.556 473.749L359.017 480.318C359.017 480.318 365.702 512.34 365.519 516.208C365.349 520.065 360.405 526.61 358.068 524.944Z" fill="#C9CA3D"/>
<path d="M359.943 522.206C352.54 511.427 321.648 468.639 313.502 458.553C313.442 458.468 313.381 458.517 313.442 458.602C320.553 469.442 351.785 511.975 359.772 522.34C359.943 522.547 360.101 522.438 359.943 522.206Z" fill="#263238"/>
<path d="M362.463 480.099C360.223 475.367 355.9 470.732 350.616 469.697C350.409 469.661 350.36 469.953 350.494 470.05C354.768 473.226 358.384 476.462 361.915 480.464C362.171 480.744 362.622 480.44 362.463 480.099Z" fill="#263238"/>
<path d="M362.816 484.418C360.576 479.686 356.253 475.05 350.969 474.016C350.762 473.98 350.713 474.272 350.847 474.369C355.121 477.545 358.737 480.781 362.268 484.783C362.536 485.063 362.987 484.759 362.816 484.418Z" fill="#263238"/>
<path d="M363.182 488.737C360.941 484.005 356.619 479.369 351.334 478.335C351.127 478.299 351.078 478.591 351.212 478.688C355.486 481.863 359.103 485.099 362.634 489.102C362.889 489.394 363.34 489.078 363.182 488.737Z" fill="#263238"/>
<path d="M363.547 493.069C361.306 488.336 356.984 483.701 351.699 482.667C351.492 482.63 351.444 482.922 351.578 483.02C355.851 486.195 359.468 489.431 362.999 493.434C363.255 493.714 363.705 493.397 363.547 493.069Z" fill="#263238"/>
<path d="M377.684 480.83C378.755 477.557 375.528 475.245 372.813 474.564C368.405 473.457 362.914 473.664 358.616 475.051C358.506 475.087 358.494 475.184 358.53 475.257C358.226 475.501 358.092 476.024 358.482 476.292C362.244 478.81 365.958 481.973 370.39 483.263C372.971 484.005 376.661 483.92 377.684 480.83ZM364.972 478.944C363.084 477.752 361.282 476.474 359.346 475.343C362.122 475.257 364.874 475.051 367.65 475.245C368.978 475.343 370.341 475.452 371.632 475.732C373.653 476.158 379.62 479.333 374.506 481.9C371.693 483.311 367.212 480.367 364.972 478.944Z" fill="#263238"/>
<path d="M352.028 463.663C353.051 468.152 355.985 472.058 358.275 475.963C358.518 476.364 359.042 476.267 359.31 475.975C359.383 476.012 359.48 476.012 359.517 475.914C361.16 471.705 361.696 466.242 360.856 461.777C360.332 459.016 358.214 455.67 354.89 456.534C351.736 457.361 351.432 461.047 352.028 463.663ZM353.635 459.636C356.509 454.697 359.322 460.828 359.626 462.872C359.821 464.186 359.858 465.549 359.87 466.875C359.894 469.661 359.517 472.386 359.261 475.148C358.25 473.153 357.081 471.279 356.01 469.32C354.719 467.009 352.053 462.361 353.635 459.636Z" fill="#263238"/>
<path d="M387.79 364.91C384.977 378.816 338.817 422.517 338.817 422.517L379.072 468.943C379.072 468.943 449.463 398.963 445.189 368.244C441.463 341.527 401.427 234.064 401.427 234.064H355.231C355.231 234.064 390.566 351.236 387.79 364.91Z" fill="#263238"/>
<path d="M387.79 364.91C384.977 378.816 338.817 422.517 338.817 422.517L379.072 468.943C379.072 468.943 449.463 398.963 445.189 368.244C441.463 341.527 401.427 234.064 401.427 234.064H355.231C355.231 234.064 390.566 351.236 387.79 364.91Z" fill="#37474F"/>
<path d="M383.65 457.896C378.305 451.241 379.936 453.079 374.506 446.485C371.851 443.261 354.39 422.079 351.395 419.5C351.334 419.439 351.212 419.537 351.261 419.61C353.27 423.016 371.096 443.893 373.812 447.069C379.364 453.553 377.842 451.631 383.455 458.055C383.565 458.188 383.747 458.03 383.65 457.896Z" fill="#263238"/>
<path d="M393.525 358.134C392.867 354.667 392.112 351.212 391.382 347.744C389.884 340.688 388.289 333.644 386.609 326.624C383.285 312.706 379.68 298.861 375.76 285.089C371.827 271.28 367.662 257.484 362.865 243.943C362.268 242.264 361.66 240.597 361.051 238.931C361.002 238.809 360.807 238.858 360.844 238.991C364.996 252.557 369.27 266.085 373.166 279.736C377.038 293.325 380.63 306.988 384.015 320.711C385.708 327.597 387.291 334.52 388.837 341.442C389.592 344.849 390.335 348.255 391.065 351.662C391.796 355.117 392.782 358.657 393.001 362.198C393.208 365.677 392.076 368.755 390.286 371.687C388.557 374.522 386.511 377.186 384.551 379.851C380.606 385.204 354.585 415.278 353.368 416.422C353.27 416.507 353.416 416.641 353.514 416.556C358.555 412.03 378.889 389.304 382.931 383.963C384.941 381.323 386.889 378.646 388.8 375.933C390.59 373.403 392.392 370.823 393.391 367.855C394.462 364.667 394.146 361.382 393.525 358.134Z" fill="#263238"/>
<path d="M393.427 234.064L385.038 344.033C377.038 306.391 355.23 234.064 355.23 234.064H393.427Z" fill="#263238"/>
<path d="M474.789 536.282C472.074 537.182 394.462 536.866 391.504 534.98C390.383 534.274 389.775 522.972 389.422 509.309C389.336 506.353 378.499 458.759 378.499 458.759L429.067 458.82L439.454 509.358C439.454 509.358 469.115 522.765 472.123 525.174C475.13 527.571 477.492 535.381 474.789 536.282Z" fill="#AD6359"/>
<path d="M474.777 536.282C472.062 537.17 394.45 536.866 391.504 534.968C390.371 534.263 389.762 522.972 389.422 509.298C389.385 508.264 388.033 501.743 386.292 493.713H436.251L439.466 509.346C439.466 509.346 469.115 522.753 472.135 525.162C475.118 527.571 477.492 535.382 474.777 536.282Z" fill="#EBEBEB"/>
<path d="M475.021 536.391C472.293 537.291 394.243 536.987 391.272 535.089C390.164 534.384 389.823 523.483 388.569 510.125C388.265 506.901 387.315 503.531 387.254 500.124L438.029 500.173L439.49 509.322C439.49 509.322 469.322 522.789 472.354 525.223C475.374 527.644 477.748 535.491 475.021 536.391Z" fill="#FFC727"/>
<path d="M475.021 536.391C472.293 537.291 394.243 536.987 391.272 535.089C390.164 534.384 389.823 523.483 388.569 510.125C388.265 506.901 387.315 503.531 387.254 500.124L438.029 500.173L439.49 509.322C439.49 509.322 469.322 522.789 472.354 525.223C475.374 527.644 477.748 535.491 475.021 536.391Z" fill="#C9CA3D"/>
<path d="M473.913 533.265C460.835 532.888 408.039 532.62 395.071 533.253C394.962 533.253 394.962 533.326 395.071 533.338C408.027 533.995 460.823 533.837 473.913 533.484C474.193 533.472 474.193 533.277 473.913 533.265Z" fill="#263238"/>
<path d="M441.341 506.426C436.191 505.441 429.895 506.207 425.95 509.857C425.792 510.003 425.999 510.21 426.169 510.161C431.259 508.58 436.008 507.57 441.317 507.071C441.694 507.047 441.719 506.499 441.341 506.426Z" fill="#263238"/>
<path d="M445.055 508.677C439.916 507.691 433.609 508.458 429.664 512.108C429.506 512.254 429.713 512.46 429.883 512.412C434.973 510.83 439.722 509.82 445.03 509.322C445.408 509.297 445.42 508.75 445.055 508.677Z" fill="#263238"/>
<path d="M448.756 510.928C443.618 509.942 437.311 510.709 433.366 514.358C433.207 514.504 433.414 514.711 433.585 514.663C438.674 513.081 443.423 512.071 448.732 511.572C449.11 511.548 449.122 511.001 448.756 510.928Z" fill="#263238"/>
<path d="M452.47 513.19C447.332 512.205 441.025 512.971 437.079 516.621C436.921 516.767 437.128 516.974 437.299 516.925C442.388 515.344 447.137 514.334 452.446 513.835C452.823 513.799 452.835 513.251 452.47 513.19Z" fill="#263238"/>
<path d="M450.899 494.564C448.89 491.778 445.116 493.007 442.961 494.808C439.466 497.715 436.41 502.265 434.985 506.56C434.949 506.67 435.022 506.73 435.107 506.743C435.119 507.132 435.472 507.546 435.911 507.387C440.172 505.83 444.909 504.699 448.562 501.876C450.693 500.246 452.799 497.217 450.899 494.564ZM441.877 503.713C439.807 504.528 437.7 505.234 435.655 506.134C437.213 503.847 438.675 501.499 440.464 499.37C441.317 498.348 442.218 497.326 443.204 496.438C444.738 495.051 450.814 492.107 449.889 497.752C449.377 500.866 444.361 502.74 441.877 503.713Z" fill="#263238"/>
<path d="M421.908 505.173C426.145 506.998 431.028 506.925 435.533 507.375C435.996 507.424 436.239 506.937 436.154 506.548C436.227 506.511 436.288 506.426 436.227 506.341C433.792 502.533 429.688 498.883 425.585 496.925C423.052 495.72 419.095 495.452 417.829 498.652C416.635 501.681 419.436 504.103 421.908 505.173ZM419.594 501.487C417.293 496.255 423.917 497.594 425.743 498.567C426.924 499.187 428.045 499.954 429.128 500.732C431.393 502.351 433.378 504.261 435.46 506.098C433.256 505.733 431.04 505.575 428.836 505.295C426.194 504.954 420.861 504.382 419.594 501.487Z" fill="#263238"/>
<path d="M400.916 234.064C400.867 235.037 398.286 243.869 396.946 257.094C395.985 266.754 394.779 275.295 393.488 276.365C392.027 277.57 384.734 282.254 382.274 283.75C382.274 283.75 405.031 352.695 410.913 375.665C419.424 408.976 436.885 490.075 436.885 490.075L382.542 490.063C382.542 490.063 368.953 413.769 361.733 382.052C355.535 354.861 331.816 273.287 331.816 273.287C323.183 252.082 333.739 234.064 333.739 234.064C333.739 234.064 400.916 234.027 400.916 234.064Z" fill="#37474F"/>
<path d="M431.491 479.552C423.527 479.503 425.816 479.394 417.853 479.43C413.957 479.454 388.362 479.613 384.734 480.306C384.648 480.318 384.661 480.464 384.734 480.476C388.386 481.06 413.969 480.428 417.865 480.33C425.816 480.124 423.539 480.087 431.491 479.795C431.649 479.795 431.649 479.552 431.491 479.552Z" fill="#263238"/>
<path d="M397.336 273.64C392.039 276.426 387.059 280.003 382.347 283.665C382.164 283.811 382.347 284.103 382.554 283.969C387.632 280.794 392.843 277.692 397.738 274.237C398.115 273.969 397.738 273.421 397.336 273.64Z" fill="#263238"/>
<path d="M393.184 236.132C393.135 235.95 392.807 235.962 392.831 236.156C393.878 242.604 394.353 248.347 394.743 254.466C394.925 257.301 395.071 273.141 390.042 272.764C389.202 272.703 388.654 271.961 388.338 270.757C387.96 269.309 388.228 267.411 388.24 265.903C388.277 262.581 388.204 259.26 387.973 255.938C387.546 249.746 386.621 243.626 384.928 237.653C384.868 237.458 384.588 237.519 384.612 237.714C385.939 246.169 387.023 254.649 387.059 263.226C387.072 267.35 385.988 273.725 390.298 273.689C394.694 273.652 395.887 263.068 395.985 260.209C396.265 252.252 395.023 243.882 393.184 236.132Z" fill="#263238"/>
<path d="M390.237 273.166C389.957 274.273 389.775 275.416 389.641 276.548C389.543 277.424 389.361 278.385 389.592 279.261C389.641 279.431 389.872 279.407 389.945 279.285C390.408 278.47 390.493 277.448 390.676 276.548C390.895 275.502 391.126 274.455 391.321 273.397C391.443 272.679 390.408 272.484 390.237 273.166Z" fill="#263238"/>
<path d="M377.671 460.682C377.513 459.149 377.318 457.628 377.111 456.108C376.722 453.176 372.289 429.44 369.952 417.87C368.624 411.336 367.09 404.864 365.471 398.404C365.361 397.954 364.765 398.173 364.838 398.611C365.824 404.523 366.774 410.436 367.894 416.325C369.014 422.189 375.309 452.446 375.906 455.731C376.198 457.373 376.515 459.003 376.831 460.633C377.16 462.264 377.623 463.857 377.878 465.5C377.903 465.658 378.122 465.585 378.098 465.427C377.866 463.87 377.842 462.264 377.671 460.682Z" fill="#263238"/>
<path d="M416.623 396.311C414.809 387.296 412.374 378.415 409.926 369.558C404.983 351.747 399.175 334.179 393.379 316.635C391.711 311.574 390.042 306.525 388.362 301.464C387.522 298.933 383.431 285.307 382.919 284.006C382.871 283.872 382.676 283.933 382.712 284.066C383.881 288.714 385.501 295.478 386.852 300.077C388.192 304.627 389.653 309.129 391.065 313.654C393.841 322.548 396.666 331.417 399.357 340.335C404.678 357.951 409.975 375.568 414.298 393.464C415.503 398.477 416.721 403.477 417.817 408.514C418.925 413.538 419.862 418.599 420.921 423.636C420.946 423.77 421.177 423.733 421.165 423.6C420.264 414.426 418.438 405.35 416.623 396.311Z" fill="#263238"/>
<path d="M382.846 443.43C379.851 426.24 376.271 409.146 372.302 392.162C368.308 375.093 363.876 358.134 358.981 341.296C354.086 324.47 348.667 307.778 342.835 291.244C340.071 283.409 337.271 275.562 335.456 267.435C333.666 259.406 332.753 250.719 334.628 242.629C335.103 240.573 335.7 238.565 336.491 236.594C336.54 236.46 336.345 236.339 336.284 236.485C329.746 251.705 333.995 268.336 338.963 283.336C341.691 291.549 344.601 299.712 347.292 307.936C350.056 316.38 352.698 324.872 355.231 333.388C360.247 350.274 364.898 367.258 369.075 384.376C373.239 401.482 376.965 418.709 380.228 436.009C383.504 453.37 383.333 451.947 386.122 469.393C386.487 471.668 386.767 473.943 387.071 476.218C387.084 476.34 387.291 476.34 387.266 476.218C385.172 458.954 385.829 460.597 382.846 443.43Z" fill="#263238"/>
<path d="M434.802 105.942L429.713 139.387C429.457 140.373 430.017 141.115 430.955 141.017L447.819 139.399C448.756 139.314 449.731 138.426 449.986 137.441L455.076 103.996C455.332 102.998 454.772 102.268 453.834 102.366L436.97 103.984C436.032 104.069 435.058 104.945 434.802 105.942Z" fill="#455A64"/>
<path d="M436.799 105.735L431.71 139.18C431.454 140.178 432.014 140.908 432.952 140.81L449.816 139.192C450.753 139.107 451.727 138.219 451.983 137.234L457.073 103.789C457.329 102.791 456.768 102.061 455.831 102.159L438.967 103.777C438.029 103.862 437.055 104.738 436.799 105.735Z" fill="#37474F"/>
<path d="M441.572 106.782C441.633 107.572 441.037 108.266 440.245 108.327C439.454 108.387 438.76 107.791 438.699 107.001C438.638 106.21 439.235 105.516 440.026 105.455C440.818 105.395 441.512 105.991 441.572 106.782Z" fill="#263238"/>
<path d="M387.546 159.924C398.87 179.414 425.743 205.668 434.62 205.011C438.845 204.695 446.467 205.048 451.594 199.719C462.759 188.088 471.1 166.98 472.147 155.215C472.525 151.03 451.691 143.852 449.024 147.465C442.778 155.921 436.057 172.041 434.827 172.053C430.261 172.102 409.184 158.902 395.717 150.787C378.816 140.628 383.041 152.162 387.546 159.924Z" fill="#AD6359"/>
<path d="M470.796 133.9C467.946 125.725 465.949 124.058 467.216 115.882C468.044 110.517 464.963 107.682 461.602 112.22C456.111 119.654 457.572 130.968 459.204 134.752L470.796 133.9Z" fill="#AD6359"/>
<path d="M471.49 158.902C471.49 158.902 474.205 146.918 472.038 137.903C470.528 131.674 465.742 118.474 447.417 112.877C443.07 111.551 435.935 112.743 442.254 117.488C446.735 120.858 450.595 121.637 452.848 124.07C452.848 124.07 443.959 126.662 442.79 131.066C442.266 133.037 440.988 138.438 440.586 142.782C440.586 142.782 441.512 143.122 442.741 143.39C442.741 143.39 442.047 147.599 445.542 153.074L471.49 158.902Z" fill="#AD6359"/>
<path d="M469.639 132.185C466.899 130.238 461.006 126.224 455.052 124.605C448.428 122.805 435.192 121.138 433.914 126.029C432.976 129.618 437.98 130.701 437.98 130.701C437.98 130.701 432.367 131.163 432.233 134.594C432.112 137.721 436.032 138.329 436.032 138.329C436.032 138.329 432.672 139.193 433.134 142.222C433.694 145.872 440.635 143.463 444.397 146.663C445.225 147.393 469.639 132.185 469.639 132.185Z" fill="#AD6359"/>
<path d="M454.321 131.917C451.435 130.518 444.081 128.997 438.078 130.615C437.944 130.652 437.895 130.773 438.029 130.761C445.006 130.384 451.557 131.394 454.309 131.978C454.333 131.978 454.345 131.929 454.321 131.917Z" fill="#263238"/>
<path d="M452.312 138.535C449.706 137.574 442.047 136.358 436.02 138.195C435.886 138.231 435.85 138.365 435.984 138.353C443.265 137.659 449.524 138.17 452.3 138.596C452.336 138.608 452.348 138.548 452.312 138.535Z" fill="#263238"/>
<path d="M418.084 162.235L405.616 189.219C405.616 189.219 385.671 163.306 381.957 154.035C377.781 143.597 384.04 143.743 393.902 147.867C403.765 152.003 418.084 162.235 418.084 162.235Z" fill="#A8A535"/>
<path d="M412.763 160.933C410.706 164.157 405.908 174.681 405.105 176.409C404.678 177.321 403.132 181.044 402.694 181.944C402.633 182.066 402.828 182.127 402.888 182.005C403.716 180.277 404.727 178.623 405.567 176.895C406.432 175.131 411.68 164.632 412.897 160.994C412.922 160.921 412.812 160.86 412.763 160.933Z" fill="#263238"/>
<path d="M328.382 246.911C328.382 246.899 409.196 249.673 409.196 249.673C409.135 251.254 406.846 186.275 387.169 147.429C385.829 144.776 373.227 141.552 367.443 146.516C342.141 168.281 328.345 247.933 328.382 246.911Z" fill="#C9CA3D"/>
<path opacity="0.1" d="M366.055 147.782L387.778 148.706C387.851 148.816 387.912 148.938 387.96 149.059L365.702 148.11C365.812 148.001 365.933 147.891 366.055 147.782ZM360.04 154.887L391.138 156.189C391.102 156.067 391.053 155.957 390.992 155.848L360.272 154.534C360.198 154.656 360.113 154.777 360.04 154.887ZM355.705 161.7L393.841 163.306C393.805 163.184 393.768 163.075 393.72 162.965L355.888 161.359C355.815 161.481 355.754 161.59 355.705 161.7ZM352.077 168.549L396.179 170.423C396.143 170.301 396.106 170.18 396.07 170.058L352.235 168.209C352.186 168.318 352.126 168.44 352.077 168.549ZM348.935 175.411L398.225 177.504C398.201 177.382 398.164 177.272 398.128 177.151L349.069 175.07C349.033 175.192 348.984 175.301 348.935 175.411ZM346.123 182.309L400.027 184.584C400.003 184.463 399.966 184.353 399.942 184.231L346.244 181.956C346.208 182.066 346.159 182.2 346.123 182.309ZM343.578 189.195L401.622 191.653C401.598 191.531 401.573 191.422 401.549 191.3L343.7 188.842C343.663 188.952 343.627 189.074 343.578 189.195ZM341.228 196.093L403.035 198.709C403.01 198.587 402.986 198.478 402.962 198.356L341.35 195.741C341.313 195.874 341.277 195.984 341.228 196.093ZM339.097 203.004L404.289 205.765C404.277 205.644 404.252 205.534 404.228 205.413L339.194 202.663C339.158 202.785 339.121 202.894 339.097 203.004ZM337.076 209.902L405.409 212.797C405.385 212.676 405.372 212.578 405.348 212.457L337.173 209.573C337.149 209.683 337.112 209.792 337.076 209.902ZM335.213 216.824L406.371 219.842C406.371 219.72 406.346 219.623 406.334 219.501L335.298 216.496C335.274 216.605 335.237 216.715 335.213 216.824ZM333.459 223.759L407.223 226.886C407.223 226.776 407.211 226.655 407.187 226.545L333.545 223.431C333.52 223.528 333.496 223.637 333.459 223.759ZM331.828 230.694L407.966 233.906L407.929 233.577L331.901 230.353C331.876 230.463 331.852 230.584 331.828 230.694ZM330.281 237.628L408.575 240.938C408.563 240.816 408.55 240.706 408.55 240.585L330.354 237.276C330.33 237.397 330.306 237.519 330.281 237.628ZM328.869 244.563L409.074 247.945C409.062 247.836 409.062 247.714 409.05 247.605L328.93 244.222C328.905 244.332 328.881 244.454 328.869 244.563Z" fill="black"/>
<path d="M385.355 157.052C381.531 158.086 373.361 153.828 370.439 148.427C370.244 148.049 370.828 144.168 371.315 139.399C371.595 136.504 371.851 133.28 371.863 130.323C371.863 129.715 390.432 134.922 390.432 134.922C390.432 134.922 388.581 141.115 388.581 146.285C388.581 146.711 388.63 147.113 388.703 147.502C388.715 147.563 388.727 147.624 388.727 147.709C389.081 149.996 389.434 155.933 385.355 157.052Z" fill="#AD6359"/>
<path d="M388.691 147.49C388.691 147.551 388.703 147.624 388.703 147.697C388.119 147.769 387.498 147.806 386.804 147.782C375.869 147.49 373.044 133.803 372.496 130.335C375.796 130.822 390.408 134.922 390.408 134.922C390.408 134.922 388.557 141.127 388.557 146.285C388.581 146.699 388.606 147.113 388.691 147.49Z" fill="#263238"/>
<path d="M368.503 107.256C366.676 113.887 370.67 132.805 375.467 136.917C382.432 142.879 393.561 143.159 398.566 134.861C403.412 126.819 397.774 102.256 392.429 98.5454C384.575 93.0829 371.206 97.4505 368.503 107.256Z" fill="#AD6359"/>
<path d="M387.376 118.133C387.352 118.084 387.291 118.218 387.303 118.267C387.607 119.532 387.741 121.041 386.67 121.698C386.633 121.722 386.657 121.783 386.694 121.771C388.07 121.272 387.863 119.277 387.376 118.133Z" fill="#263238"/>
<path d="M385.963 117.026C383.881 117.294 384.563 121.442 386.499 121.199C388.399 120.956 387.705 116.807 385.963 117.026Z" fill="#263238"/>
<path d="M394.852 117.111C394.852 117.062 394.962 117.16 394.974 117.208C395.144 118.498 395.558 119.946 396.8 120.189C396.837 120.201 396.849 120.262 396.8 120.262C395.339 120.286 394.816 118.352 394.852 117.111Z" fill="#263238"/>
<path d="M395.777 115.578C397.823 115.079 398.663 119.191 396.776 119.654C394.913 120.116 394.073 115.992 395.777 115.578Z" fill="#263238"/>
<path d="M384.015 115.408C384.551 115.177 385.014 114.86 385.525 114.581C386.097 114.252 386.597 114.057 386.901 113.437C387.071 113.108 386.889 112.585 386.584 112.403C385.866 111.953 385.062 112.184 384.356 112.537C383.589 112.926 383.09 113.437 382.749 114.228C382.408 114.982 383.297 115.712 384.015 115.408Z" fill="#263238"/>
<path d="M397.044 113.218C396.447 113.218 395.911 113.121 395.327 113.06C394.669 112.999 394.134 113.011 393.598 112.573C393.306 112.342 393.269 111.794 393.476 111.49C393.951 110.797 394.779 110.675 395.571 110.724C396.435 110.773 397.093 111.04 397.726 111.624C398.335 112.196 397.823 113.218 397.044 113.218Z" fill="#263238"/>
<path d="M388.167 130.25C388.52 130.506 388.898 130.859 389.373 130.822C389.823 130.786 390.323 130.494 390.7 130.275C390.736 130.25 390.785 130.287 390.761 130.335C390.505 130.883 389.86 131.309 389.239 131.309C388.642 131.309 388.265 130.846 388.033 130.335C388.021 130.262 388.106 130.214 388.167 130.25Z" fill="#263238"/>
<path d="M388.874 126.175C389.775 127.172 390.944 127.61 392.125 127.635C392.648 127.647 393.196 127.586 393.708 127.44C393.805 127.416 393.915 127.391 394 127.355C394.097 127.331 394.17 127.306 394.28 127.27C394.426 127.221 394.487 127.087 394.487 126.941V126.929C394.475 126.88 394.475 126.844 394.45 126.795C394.45 126.795 394.45 126.795 394.45 126.783L394.426 126.674C394.292 125.676 393.939 124.192 393.939 124.192C394.329 124.313 396.313 124.837 396.192 124.326C395.23 120.092 394.158 115.384 392.295 111.369C392.246 111.235 392.027 111.296 392.064 111.442C392.831 115.554 394.316 119.496 395.144 123.608C394.523 123.486 393.488 123.231 392.977 123.328C392.843 123.389 393.695 126.187 393.72 126.649C393.72 126.649 393.72 126.674 393.72 126.698C392.088 127.185 390.749 126.893 388.959 126.041C388.874 125.992 388.788 126.09 388.874 126.175Z" fill="#263238"/>
<path d="M393.038 127.051C393.038 127.051 392.356 128.377 391.224 129.009C390.81 129.241 390.335 129.387 389.823 129.338C388.752 129.241 388.569 128.304 388.63 127.464C388.679 126.771 388.886 126.15 388.886 126.15C388.886 126.15 390.615 127.294 393.038 127.051Z" fill="#263238"/>
<path d="M391.236 129.009C390.822 129.241 390.347 129.387 389.835 129.338C388.764 129.241 388.581 128.304 388.642 127.464C389.75 127.379 390.956 127.951 391.236 129.009Z" fill="#FF99BA"/>
<path d="M396.216 104.397C395.242 102.877 394.158 101.368 393.123 101.21C392.088 101.052 391.832 103.546 389.628 104.069C386.645 104.762 384.734 102.232 380.46 102.633C374.335 103.205 372.496 108.704 373.763 117.318C374.895 125.007 370.366 126.491 370.366 126.491C370.366 126.491 364.777 110.03 368.624 103.643C372.484 97.2558 383.029 92.9855 391.26 97.122C394.268 98.6306 396.216 104.397 396.216 104.397Z" fill="#263238"/>
<path d="M373.751 122.829C373.751 122.829 369.16 116.892 366.445 118.559C363.73 120.226 367.382 128.973 370.719 130.044C374.055 131.102 375.102 128.048 375.102 128.048L373.751 122.829Z" fill="#AD6359"/>
<path d="M367.541 121.041C367.492 121.041 367.48 121.114 367.529 121.126C369.866 121.941 371.181 124.021 372.131 126.187C371.413 125.372 370.451 124.946 369.355 125.81C369.294 125.858 369.355 125.943 369.428 125.931C370.353 125.688 371.048 125.822 371.717 126.54C372.192 127.051 372.533 127.708 372.886 128.316C373.008 128.511 373.373 128.389 373.276 128.158C373.264 128.146 373.264 128.121 373.251 128.109C373.178 125.177 370.707 121.187 367.541 121.041Z" fill="#263238"/>
<path d="M355.973 156.858C344.235 172.381 319.371 202.845 321.709 217.068C324.303 232.896 334.531 257.836 341.143 265.039C342.726 266.766 351.687 265.988 358.567 262.557C364.18 259.746 368.101 254.551 368.077 252.508C368.028 247.957 353.002 219.574 351.931 216.35C350.859 213.114 364.972 180.508 369.866 164.741C376.052 144.837 365.897 143.718 355.973 156.858Z" fill="#AD6359"/>
<path d="M363.486 186.482L334.202 181.263C334.202 181.263 354.232 155.422 362.281 149.485C371.328 142.806 372.764 148.889 371.267 159.461C369.781 170.045 363.486 186.482 363.486 186.482Z" fill="#A8A535"/>
<path d="M363.401 181.007C359.76 179.839 348.351 177.868 346.476 177.527C345.477 177.345 341.496 176.797 340.509 176.603C340.388 176.578 340.363 176.773 340.497 176.797C342.385 177.162 344.235 177.71 346.123 178.087C348.059 178.476 359.541 180.885 363.376 181.141C363.462 181.165 363.486 181.031 363.401 181.007Z" fill="#263238"/>
<path d="M368.077 174.583C368.734 173.16 369.379 171.736 369.988 170.277C370 170.252 369.952 170.228 369.939 170.252C369.416 171.286 368.917 172.32 368.43 173.367C369.063 171.152 369.659 168.926 370.159 166.688C370.171 166.651 370.11 166.639 370.098 166.675C368.856 169.936 367.796 173.257 366.64 176.542C365.495 179.766 364.424 183.002 363.34 186.251C362.658 186.238 361.976 186.202 361.282 186.165C361.148 186.153 361.136 186.336 361.258 186.36C361.988 186.53 362.719 186.689 363.437 186.895C363.608 186.944 363.803 186.895 363.863 186.713C365.434 182.759 366.847 178.695 368.077 174.583Z" fill="#263238"/>
<path d="M339.754 265.428C342.762 265.683 345.697 265.404 348.546 264.905C351.395 264.369 354.183 263.542 356.862 262.459C362.195 260.525 366.274 256.145 368.771 250.67C368.49 253.7 367.224 256.656 365.312 259.138C363.413 261.644 360.698 263.603 357.763 264.722C354.89 265.842 351.858 266.62 348.765 266.791C345.721 266.961 342.555 266.669 339.754 265.428Z" fill="#263238"/>
</g>
<defs>
<clipPath id="clip0_167_679">
<rect width="512" height="537" fill="white"/>
</clipPath>
</defs>
</svg>
