<svg width="721" height="524" viewBox="0 0 721 524" fill="none" xmlns="http://www.w3.org/2000/svg">
<g clip-path="url(#clip0_53_45)">
<path d="M301.019 92.3751C287.506 92.3751 276.551 81.4288 276.551 67.926C276.551 54.4231 287.506 43.4769 301.019 43.4769C314.531 43.4769 325.486 54.4231 325.486 67.926C325.486 81.4288 314.531 92.3751 301.019 92.3751Z" fill="#F2F2F2"/>
<path d="M111.219 455.228C74.8517 427.548 57.4816 381.035 68.356 336.664C68.6262 335.562 68.9114 334.462 69.2116 333.365C76.4209 307.027 94.2568 281.995 120.252 273.579C142.079 266.513 165.904 271.947 188.675 269.137C233.376 263.621 268.031 227.479 292.416 189.639C316.8 151.798 335.541 109.441 367.943 78.1796C421.352 26.6499 508.475 15.5555 574.695 49.0975C640.914 82.6396 683.095 157.055 681.297 231.22C679.498 305.385 635.437 376.292 571.45 413.912C547.943 427.732 520.756 437.523 493.699 434.097C470.222 431.124 448.891 418.519 425.524 414.777C388.787 408.893 352.284 425.491 320.508 444.832C288.733 464.174 258.041 487.1 221.933 496.066C186.872 504.773 143.435 479.748 111.219 455.228Z" fill="#F2F2F2"/>
<path d="M163.471 50.6549C164.268 50.1238 165.074 49.6202 165.872 49.1074C188.917 34.3795 213.618 22.4148 239.463 13.4603L245.456 96.0722H283.448V1.40093C285.84 0.906468 288.25 0.439476 290.66 -4.57764e-05V96.0722H335.808C360.663 96.0722 384.5 86.206 402.075 68.644C419.649 51.0821 429.523 27.263 429.523 2.42659V2.42651C431.942 2.94844 434.343 3.507 436.744 4.10219V96.0722H473.517L479.226 17.297C505.786 27.4759 531.002 40.8616 554.311 57.1562C554.714 57.4309 555.117 57.7147 555.511 57.9894C557.537 59.4087 559.534 60.8555 561.523 62.3206V377.485H453.146L455.062 350.977L465.6 205.431H253.383L263.921 350.977L265.836 377.485H158.66V53.8414C160.254 52.761 161.858 51.6988 163.471 50.6549ZM436.744 181.394H467.341L472.994 103.288H436.744V181.394ZM290.66 181.394H342.048V179.847C342.048 179.103 342.195 178.366 342.48 177.679C342.765 176.992 343.183 176.368 343.71 175.842C344.237 175.317 344.862 174.9 345.551 174.616C346.239 174.332 346.976 174.187 347.721 174.188H370.061C370.805 174.188 371.541 174.334 372.229 174.618C372.916 174.903 373.54 175.319 374.066 175.845C374.592 176.37 375.009 176.994 375.294 177.681C375.578 178.368 375.724 179.104 375.724 179.847V181.394H429.523V103.288H290.66V181.394ZM283.448 181.394V103.288H245.979L251.632 181.394H283.448Z" fill="#3F3D56"/>
<path d="M721 397.668C713.04 407.093 704.429 415.951 695.232 424.176L25.7678 425.092C16.5708 416.867 7.96063 408.009 6.10352e-05 398.583L721 397.668Z" fill="#3F3D56"/>
<path d="M267.014 312.785V391.262C267.014 392.262 266.616 393.221 265.908 393.928C265.2 394.635 264.241 395.033 263.24 395.034H146.86C145.859 395.033 144.899 394.635 144.192 393.928C143.484 393.221 143.086 392.262 143.085 391.262V312.785C143.088 311.786 143.486 310.829 144.194 310.122C144.901 309.416 145.86 309.019 146.86 309.018H263.24C264.24 309.019 265.199 309.416 265.906 310.122C266.613 310.829 267.012 311.786 267.014 312.785Z" fill="#3F3D56"/>
<path d="M264.284 313.762V390.294C264.283 390.828 264.07 391.34 263.692 391.718C263.314 392.096 262.802 392.309 262.267 392.31H147.829C147.294 392.309 146.781 392.096 146.403 391.718C146.025 391.34 145.812 390.828 145.811 390.294V313.762C145.811 313.227 146.024 312.714 146.402 312.335C146.78 311.956 147.293 311.743 147.829 311.742H262.267C262.802 311.743 263.315 311.956 263.693 312.335C264.072 312.714 264.284 313.227 264.284 313.762Z" fill="#C9CA3D"/>
<path d="M269.448 406.567C269.235 406.834 268.964 407.05 268.656 407.197C268.347 407.345 268.009 407.42 267.668 407.419H143.052C142.711 407.418 142.375 407.342 142.067 407.195C141.759 407.048 141.488 406.835 141.274 406.571C141.059 406.306 140.906 405.997 140.826 405.666C140.746 405.335 140.74 404.99 140.81 404.657L142.745 395.476C142.825 395.101 142.998 394.753 143.247 394.462C143.496 394.171 143.814 393.947 144.172 393.811C144.432 393.709 144.708 393.657 144.986 393.658H265.741C266.019 393.657 266.295 393.709 266.554 393.811C266.912 393.947 267.231 394.171 267.48 394.462C267.729 394.753 267.902 395.101 267.982 395.476L269.917 404.657C269.985 404.99 269.979 405.335 269.898 405.665C269.817 405.995 269.663 406.303 269.448 406.567Z" fill="#2F2E41"/>
<path d="M149.262 397.612H146.319C146.071 397.612 145.871 397.412 145.871 397.165V395.758C145.871 395.511 146.071 395.311 146.319 395.311H149.262C149.509 395.311 149.709 395.511 149.709 395.758V397.165C149.709 397.412 149.509 397.612 149.262 397.612Z" fill="#3F3D56"/>
<path d="M156.938 397.612H153.995C153.748 397.612 153.547 397.412 153.547 397.165V395.758C153.547 395.511 153.748 395.311 153.995 395.311H156.938C157.185 395.311 157.385 395.511 157.385 395.758V397.165C157.385 397.412 157.185 397.612 156.938 397.612Z" fill="#3F3D56"/>
<path d="M164.614 397.612H161.671C161.424 397.612 161.224 397.412 161.224 397.165V395.758C161.224 395.511 161.424 395.311 161.671 395.311H164.614C164.861 395.311 165.062 395.511 165.062 395.758V397.165C165.062 397.412 164.861 397.612 164.614 397.612Z" fill="#3F3D56"/>
<path d="M172.291 397.612H169.347C169.1 397.612 168.9 397.412 168.9 397.165V395.758C168.9 395.511 169.1 395.311 169.347 395.311H172.291C172.538 395.311 172.738 395.511 172.738 395.758V397.165C172.738 397.412 172.538 397.612 172.291 397.612Z" fill="#3F3D56"/>
<path d="M179.967 397.612H177.023C176.776 397.612 176.576 397.412 176.576 397.165V395.758C176.576 395.511 176.776 395.311 177.023 395.311H179.967C180.214 395.311 180.414 395.511 180.414 395.758V397.165C180.414 397.412 180.214 397.612 179.967 397.612Z" fill="#3F3D56"/>
<path d="M187.643 397.612H184.7C184.453 397.612 184.252 397.412 184.252 397.165V395.758C184.252 395.511 184.453 395.311 184.7 395.311H187.643C187.89 395.311 188.09 395.511 188.09 395.758V397.165C188.09 397.412 187.89 397.612 187.643 397.612Z" fill="#3F3D56"/>
<path d="M195.319 397.612H192.376C192.129 397.612 191.928 397.412 191.928 397.165V395.758C191.928 395.511 192.129 395.311 192.376 395.311H195.319C195.566 395.311 195.767 395.511 195.767 395.758V397.165C195.767 397.412 195.566 397.612 195.319 397.612Z" fill="#3F3D56"/>
<path d="M202.995 397.612H200.052C199.805 397.612 199.605 397.412 199.605 397.165V395.758C199.605 395.511 199.805 395.311 200.052 395.311H202.995C203.242 395.311 203.443 395.511 203.443 395.758V397.165C203.443 397.412 203.242 397.612 202.995 397.612Z" fill="#3F3D56"/>
<path d="M210.672 397.612H207.728C207.481 397.612 207.281 397.412 207.281 397.165V395.758C207.281 395.511 207.481 395.311 207.728 395.311H210.672C210.919 395.311 211.119 395.511 211.119 395.758V397.165C211.119 397.412 210.919 397.612 210.672 397.612Z" fill="#3F3D56"/>
<path d="M218.348 397.612H215.404C215.157 397.612 214.957 397.412 214.957 397.165V395.758C214.957 395.511 215.157 395.311 215.404 395.311H218.348C218.595 395.311 218.795 395.511 218.795 395.758V397.165C218.795 397.412 218.595 397.612 218.348 397.612Z" fill="#3F3D56"/>
<path d="M226.024 397.612H223.081C222.834 397.612 222.633 397.412 222.633 397.165V395.758C222.633 395.511 222.834 395.311 223.081 395.311H226.024C226.271 395.311 226.471 395.511 226.471 395.758V397.165C226.471 397.412 226.271 397.612 226.024 397.612Z" fill="#3F3D56"/>
<path d="M233.7 397.612H230.757C230.51 397.612 230.31 397.412 230.31 397.165V395.758C230.31 395.511 230.51 395.311 230.757 395.311H233.7C233.947 395.311 234.148 395.511 234.148 395.758V397.165C234.148 397.412 233.947 397.612 233.7 397.612Z" fill="#3F3D56"/>
<path d="M241.377 397.612H238.433C238.186 397.612 237.986 397.412 237.986 397.165V395.758C237.986 395.511 238.186 395.311 238.433 395.311H241.377C241.624 395.311 241.824 395.511 241.824 395.758V397.165C241.824 397.412 241.624 397.612 241.377 397.612Z" fill="#3F3D56"/>
<path d="M249.053 397.612H246.109C245.862 397.612 245.662 397.412 245.662 397.165V395.758C245.662 395.511 245.862 395.311 246.109 395.311H249.053C249.3 395.311 249.5 395.511 249.5 395.758V397.165C249.5 397.412 249.3 397.612 249.053 397.612Z" fill="#3F3D56"/>
<path d="M256.729 397.612H253.786C253.538 397.612 253.338 397.412 253.338 397.165V395.758C253.338 395.511 253.538 395.311 253.786 395.311H256.729C256.976 395.311 257.176 395.511 257.176 395.758V397.165C257.176 397.412 256.976 397.612 256.729 397.612Z" fill="#3F3D56"/>
<path d="M264.405 397.612H261.462C261.215 397.612 261.014 397.412 261.014 397.165V395.758C261.014 395.511 261.215 395.311 261.462 395.311H264.405C264.652 395.311 264.853 395.511 264.853 395.758V397.165C264.853 397.412 264.652 397.612 264.405 397.612Z" fill="#3F3D56"/>
<path d="M149.171 401.448H146.228C145.981 401.448 145.781 401.247 145.781 401.001V399.593C145.781 399.347 145.981 399.146 146.228 399.146H149.171C149.418 399.146 149.619 399.347 149.619 399.593V401.001C149.619 401.247 149.418 401.448 149.171 401.448Z" fill="#3F3D56"/>
<path d="M156.847 401.448H153.904C153.657 401.448 153.457 401.247 153.457 401.001V399.593C153.457 399.347 153.657 399.146 153.904 399.146H156.847C157.095 399.146 157.295 399.347 157.295 399.593V401.001C157.295 401.247 157.095 401.448 156.847 401.448Z" fill="#3F3D56"/>
<path d="M164.524 401.448H161.58C161.333 401.448 161.133 401.247 161.133 401.001V399.593C161.133 399.347 161.333 399.146 161.58 399.146H164.524C164.771 399.146 164.971 399.347 164.971 399.593V401.001C164.971 401.247 164.771 401.448 164.524 401.448Z" fill="#3F3D56"/>
<path d="M172.2 401.448H169.256C169.009 401.448 168.809 401.247 168.809 401.001V399.593C168.809 399.347 169.009 399.146 169.256 399.146H172.2C172.447 399.146 172.647 399.347 172.647 399.593V401.001C172.647 401.247 172.447 401.448 172.2 401.448Z" fill="#3F3D56"/>
<path d="M179.876 401.448H176.933C176.686 401.448 176.485 401.247 176.485 401.001V399.593C176.485 399.347 176.686 399.146 176.933 399.146H179.876C180.123 399.146 180.323 399.347 180.323 399.593V401.001C180.323 401.247 180.123 401.448 179.876 401.448Z" fill="#3F3D56"/>
<path d="M187.552 401.448H184.609C184.362 401.448 184.162 401.247 184.162 401.001V399.593C184.162 399.347 184.362 399.146 184.609 399.146H187.552C187.799 399.146 188 399.347 188 399.593V401.001C188 401.247 187.799 401.448 187.552 401.448Z" fill="#3F3D56"/>
<path d="M195.229 401.448H192.285C192.038 401.448 191.838 401.247 191.838 401.001V399.593C191.838 399.347 192.038 399.146 192.285 399.146H195.229C195.476 399.146 195.676 399.347 195.676 399.593V401.001C195.676 401.247 195.476 401.448 195.229 401.448Z" fill="#3F3D56"/>
<path d="M202.905 401.448H199.961C199.714 401.448 199.514 401.247 199.514 401.001V399.593C199.514 399.347 199.714 399.146 199.961 399.146H202.905C203.152 399.146 203.352 399.347 203.352 399.593V401.001C203.352 401.247 203.152 401.448 202.905 401.448Z" fill="#3F3D56"/>
<path d="M210.581 401.448H207.638C207.391 401.448 207.19 401.247 207.19 401.001V399.593C207.19 399.347 207.391 399.146 207.638 399.146H210.581C210.828 399.146 211.028 399.347 211.028 399.593V401.001C211.028 401.247 210.828 401.448 210.581 401.448Z" fill="#3F3D56"/>
<path d="M218.257 401.448H215.314C215.067 401.448 214.866 401.247 214.866 401.001V399.593C214.866 399.347 215.067 399.146 215.314 399.146H218.257C218.504 399.146 218.704 399.347 218.704 399.593V401.001C218.704 401.247 218.504 401.448 218.257 401.448Z" fill="#3F3D56"/>
<path d="M225.933 401.448H222.99C222.743 401.448 222.543 401.247 222.543 401.001V399.593C222.543 399.347 222.743 399.146 222.99 399.146H225.933C226.181 399.146 226.381 399.347 226.381 399.593V401.001C226.381 401.247 226.181 401.448 225.933 401.448Z" fill="#3F3D56"/>
<path d="M233.61 401.448H230.666C230.419 401.448 230.219 401.247 230.219 401.001V399.593C230.219 399.347 230.419 399.146 230.666 399.146H233.61C233.857 399.146 234.057 399.347 234.057 399.593V401.001C234.057 401.247 233.857 401.448 233.61 401.448Z" fill="#3F3D56"/>
<path d="M241.286 401.448H238.342C238.095 401.448 237.895 401.247 237.895 401.001V399.593C237.895 399.347 238.095 399.146 238.342 399.146H241.286C241.533 399.146 241.733 399.347 241.733 399.593V401.001C241.733 401.247 241.533 401.448 241.286 401.448Z" fill="#3F3D56"/>
<path d="M248.962 401.448H246.019C245.772 401.448 245.571 401.247 245.571 401.001V399.593C245.571 399.347 245.772 399.146 246.019 399.146H248.962C249.209 399.146 249.409 399.347 249.409 399.593V401.001C249.409 401.247 249.209 401.448 248.962 401.448Z" fill="#3F3D56"/>
<path d="M256.638 401.448H253.695C253.448 401.448 253.248 401.247 253.248 401.001V399.593C253.248 399.347 253.448 399.146 253.695 399.146H256.638C256.885 399.146 257.086 399.347 257.086 399.593V401.001C257.086 401.247 256.885 401.448 256.638 401.448Z" fill="#3F3D56"/>
<path d="M264.315 401.448H261.371C261.124 401.448 260.924 401.247 260.924 401.001V399.593C260.924 399.347 261.124 399.146 261.371 399.146H264.315C264.562 399.146 264.762 399.347 264.762 399.593V401.001C264.762 401.247 264.562 401.448 264.315 401.448Z" fill="#3F3D56"/>
<path d="M212.884 406.05H183.074C182.827 406.05 182.626 405.85 182.626 405.603V404.196C182.626 403.949 182.827 403.749 183.074 403.749H212.884C213.131 403.749 213.331 403.949 213.331 404.196V405.603C213.331 405.85 213.131 406.05 212.884 406.05Z" fill="#3F3D56"/>
<path d="M244.467 328.485H247.073C247.863 328.485 248.503 329.125 248.503 329.915C248.503 330.704 247.863 331.344 247.073 331.344H244.467C243.677 331.344 243.036 330.704 243.036 329.915C243.036 329.125 243.677 328.485 244.467 328.485Z" fill="white"/>
<path d="M214.664 328.485H217.27C218.06 328.485 218.701 329.125 218.701 329.915C218.701 330.704 218.06 331.344 217.27 331.344H214.664C213.874 331.344 213.234 330.704 213.234 329.915C213.234 329.125 213.874 328.485 214.664 328.485Z" fill="white"/>
<path d="M206.22 328.485H208.826C209.616 328.485 210.257 329.125 210.257 329.915C210.257 330.704 209.616 331.344 208.826 331.344H206.22C205.43 331.344 204.79 330.704 204.79 329.915C204.79 329.125 205.43 328.485 206.22 328.485Z" fill="white"/>
<path d="M222.771 328.247H238.966C239.756 328.247 240.397 328.887 240.397 329.676C240.397 330.466 239.756 331.106 238.966 331.106H222.771C221.981 331.106 221.34 330.466 221.34 329.676C221.34 328.887 221.981 328.247 222.771 328.247Z" fill="white"/>
<path d="M183.034 328.247H199.23C200.02 328.247 200.66 328.887 200.66 329.676C200.66 330.466 200.02 331.106 199.23 331.106H183.034C182.244 331.106 181.604 330.466 181.604 329.676C181.604 328.887 182.244 328.247 183.034 328.247Z" fill="white"/>
<path d="M236.519 334.938H239.125C239.915 334.938 240.556 335.578 240.556 336.367C240.556 337.157 239.915 337.797 239.125 337.797H236.519C235.729 337.797 235.089 337.157 235.089 336.367C235.089 335.578 235.729 334.938 236.519 334.938Z" fill="white"/>
<path d="M206.717 334.938H209.323C210.113 334.938 210.753 335.578 210.753 336.367C210.753 337.157 210.113 337.797 209.323 337.797H206.717C205.927 337.797 205.287 337.157 205.287 336.367C205.287 335.578 205.927 334.938 206.717 334.938Z" fill="white"/>
<path d="M198.273 334.938H200.879C201.669 334.938 202.309 335.578 202.309 336.367C202.309 337.157 201.669 337.797 200.879 337.797H198.273C197.483 337.797 196.843 337.157 196.843 336.367C196.843 335.578 197.483 334.938 198.273 334.938Z" fill="white"/>
<path d="M214.824 334.699H231.019C231.809 334.699 232.449 335.339 232.449 336.129C232.449 336.918 231.809 337.558 231.019 337.558H214.824C214.033 337.558 213.393 336.918 213.393 336.129C213.393 335.339 214.033 334.699 214.824 334.699Z" fill="white"/>
<path d="M175.087 334.699H191.283C192.073 334.699 192.713 335.339 192.713 336.129C192.713 336.918 192.073 337.558 191.283 337.558H175.087C174.297 337.558 173.657 336.918 173.657 336.129C173.657 335.339 174.297 334.699 175.087 334.699Z" fill="white"/>
<path d="M228.572 341.39H231.178C231.968 341.39 232.608 342.03 232.608 342.82C232.608 343.609 231.968 344.249 231.178 344.249H228.572C227.782 344.249 227.142 343.609 227.142 342.82C227.142 342.03 227.782 341.39 228.572 341.39Z" fill="white"/>
<path d="M198.77 341.39H201.376C202.166 341.39 202.806 342.03 202.806 342.82C202.806 343.609 202.166 344.249 201.376 344.249H198.77C197.98 344.249 197.339 343.609 197.339 342.82C197.339 342.03 197.98 341.39 198.77 341.39Z" fill="white"/>
<path d="M190.326 341.39H192.932C193.722 341.39 194.362 342.03 194.362 342.82C194.362 343.609 193.722 344.249 192.932 344.249H190.326C189.536 344.249 188.895 343.609 188.895 342.82C188.895 342.03 189.536 341.39 190.326 341.39Z" fill="white"/>
<path d="M206.876 341.152H223.072C223.862 341.152 224.502 341.792 224.502 342.581C224.502 343.371 223.862 344.011 223.072 344.011H206.876C206.086 344.011 205.446 343.371 205.446 342.581C205.446 341.792 206.086 341.152 206.876 341.152Z" fill="white"/>
<path d="M167.14 341.152H183.335C184.125 341.152 184.766 341.792 184.766 342.581C184.766 343.371 184.125 344.011 183.335 344.011H167.14C166.35 344.011 165.709 343.371 165.709 342.581C165.709 341.792 166.35 341.152 167.14 341.152Z" fill="white"/>
<path d="M220.625 347.842H223.231C224.021 347.842 224.661 348.482 224.661 349.272C224.661 350.061 224.021 350.701 223.231 350.701H220.625C219.835 350.701 219.194 350.061 219.194 349.272C219.194 348.482 219.835 347.842 220.625 347.842Z" fill="white"/>
<path d="M190.823 347.842H193.428C194.218 347.842 194.859 348.482 194.859 349.272C194.859 350.061 194.218 350.701 193.428 350.701H190.823C190.032 350.701 189.392 350.061 189.392 349.272C189.392 348.482 190.032 347.842 190.823 347.842Z" fill="white"/>
<path d="M182.379 347.842H184.984C185.774 347.842 186.415 348.482 186.415 349.272C186.415 350.061 185.774 350.701 184.984 350.701H182.379C181.589 350.701 180.948 350.061 180.948 349.272C180.948 348.482 181.589 347.842 182.379 347.842Z" fill="white"/>
<path d="M198.929 347.604H215.124C215.914 347.604 216.555 348.244 216.555 349.034C216.555 349.823 215.914 350.463 215.124 350.463H198.929C198.139 350.463 197.498 349.823 197.498 349.034C197.498 348.244 198.139 347.604 198.929 347.604Z" fill="white"/>
<path d="M214.664 373.5H217.27C218.06 373.5 218.701 374.14 218.701 374.929C218.701 375.719 218.06 376.359 217.27 376.359H214.664C213.874 376.359 213.234 375.719 213.234 374.929C213.234 374.14 213.874 373.5 214.664 373.5Z" fill="white"/>
<path d="M206.22 373.5H208.826C209.616 373.5 210.257 374.14 210.257 374.929C210.257 375.719 209.616 376.359 208.826 376.359H206.22C205.43 376.359 204.79 375.719 204.79 374.929C204.79 374.14 205.43 373.5 206.22 373.5Z" fill="white"/>
<path d="M183.034 373.738H199.23C200.02 373.738 200.66 374.378 200.66 375.168C200.66 375.957 200.02 376.597 199.23 376.597H183.034C182.244 376.597 181.604 375.957 181.604 375.168C181.604 374.378 182.244 373.738 183.034 373.738Z" fill="white"/>
<path d="M244.467 373.5H247.073C247.863 373.5 248.503 374.14 248.503 374.929C248.503 375.719 247.863 376.359 247.073 376.359H244.467C243.677 376.359 243.036 375.719 243.036 374.929C243.036 374.14 243.677 373.5 244.467 373.5Z" fill="white"/>
<path d="M222.771 373.738H238.966C239.756 373.738 240.397 374.378 240.397 375.168C240.397 375.957 239.756 376.597 238.966 376.597H222.771C221.981 376.597 221.34 375.957 221.34 375.168C221.34 374.378 221.981 373.738 222.771 373.738Z" fill="white"/>
<path d="M236.519 367.048H239.125C239.915 367.048 240.556 367.688 240.556 368.477C240.556 369.267 239.915 369.907 239.125 369.907H236.519C235.729 369.907 235.089 369.267 235.089 368.477C235.089 367.688 235.729 367.048 236.519 367.048Z" fill="white"/>
<path d="M206.717 367.048H209.323C210.113 367.048 210.753 367.688 210.753 368.477C210.753 369.267 210.113 369.907 209.323 369.907H206.717C205.927 369.907 205.287 369.267 205.287 368.477C205.287 367.688 205.927 367.048 206.717 367.048Z" fill="white"/>
<path d="M198.273 367.048H200.879C201.669 367.048 202.309 367.688 202.309 368.477C202.309 369.267 201.669 369.907 200.879 369.907H198.273C197.483 369.907 196.843 369.267 196.843 368.477C196.843 367.688 197.483 367.048 198.273 367.048Z" fill="white"/>
<path d="M214.824 367.286H231.019C231.809 367.286 232.449 367.926 232.449 368.715C232.449 369.505 231.809 370.145 231.019 370.145H214.824C214.033 370.145 213.393 369.505 213.393 368.715C213.393 367.926 214.033 367.286 214.824 367.286Z" fill="white"/>
<path d="M228.572 360.595H231.178C231.968 360.595 232.608 361.235 232.608 362.025C232.608 362.814 231.968 363.454 231.178 363.454H228.572C227.782 363.454 227.142 362.814 227.142 362.025C227.142 361.235 227.782 360.595 228.572 360.595Z" fill="white"/>
<path d="M198.77 360.595H201.376C202.166 360.595 202.806 361.235 202.806 362.025C202.806 362.814 202.166 363.454 201.376 363.454H198.77C197.98 363.454 197.339 362.814 197.339 362.025C197.339 361.235 197.98 360.595 198.77 360.595Z" fill="white"/>
<path d="M190.326 360.595H192.932C193.722 360.595 194.362 361.235 194.362 362.025C194.362 362.814 193.722 363.454 192.932 363.454H190.326C189.536 363.454 188.895 362.814 188.895 362.025C188.895 361.235 189.536 360.595 190.326 360.595Z" fill="white"/>
<path d="M206.876 360.834H223.072C223.862 360.834 224.502 361.474 224.502 362.263C224.502 363.052 223.862 363.692 223.072 363.692H206.876C206.086 363.692 205.446 363.052 205.446 362.263C205.446 361.474 206.086 360.834 206.876 360.834Z" fill="white"/>
<path d="M220.625 354.143H223.231C224.021 354.143 224.661 354.783 224.661 355.572C224.661 356.362 224.021 357.002 223.231 357.002H220.625C219.835 357.002 219.194 356.362 219.194 355.572C219.194 354.783 219.835 354.143 220.625 354.143Z" fill="white"/>
<path d="M190.823 354.143H193.428C194.218 354.143 194.859 354.783 194.859 355.572C194.859 356.362 194.218 357.002 193.428 357.002H190.823C190.032 357.002 189.392 356.362 189.392 355.572C189.392 354.783 190.032 354.143 190.823 354.143Z" fill="white"/>
<path d="M182.379 354.143H184.984C185.774 354.143 186.415 354.783 186.415 355.572C186.415 356.362 185.774 357.002 184.984 357.002H182.379C181.589 357.002 180.948 356.362 180.948 355.572C180.948 354.783 181.589 354.143 182.379 354.143Z" fill="white"/>
<path d="M198.929 354.381H215.124C215.914 354.381 216.555 355.021 216.555 355.811C216.555 356.6 215.914 357.24 215.124 357.24H198.929C198.139 357.24 197.498 356.6 197.498 355.811C197.498 355.021 198.139 354.381 198.929 354.381Z" fill="white"/>
<path d="M258.321 449.12L270.553 429.798L232.157 399.212L216.308 381.667C214.249 379.387 211.627 377.688 208.705 376.738C205.783 375.788 202.662 375.621 199.655 376.254C196.648 376.887 193.86 378.297 191.57 380.344C189.279 382.391 187.566 385.003 186.602 387.919C185.174 392.239 185.481 396.946 187.459 401.044C189.437 405.143 192.931 408.313 197.204 409.887L222.265 419.112L258.321 449.12Z" fill="#FFB6B6"/>
<path d="M545.346 309.022V402.933H479.506V309.022C479.505 308.346 479.721 307.688 480.121 307.144C480.522 306.6 481.087 306.199 481.733 306C482.037 305.899 482.356 305.85 482.677 305.853H542.166C542.583 305.852 542.996 305.934 543.381 306.093C543.767 306.251 544.117 306.485 544.413 306.779C544.708 307.073 544.942 307.423 545.103 307.807C545.263 308.192 545.345 308.605 545.346 309.022ZM519.651 341.29C519.634 339.438 518.886 337.669 517.57 336.366C516.254 335.062 514.476 334.331 512.623 334.331C510.77 334.331 508.992 335.062 507.676 336.366C506.36 337.669 505.612 339.438 505.594 341.29V352.186C505.604 354.043 506.349 355.82 507.666 357.129C508.983 358.439 510.765 359.174 512.623 359.174C514.481 359.174 516.263 358.439 517.58 357.129C518.897 355.82 519.642 354.043 519.651 352.186V341.29Z" fill="#2F2E41"/>
<path d="M545.547 399.929V408.985C545.546 409.454 545.359 409.904 545.028 410.237C544.697 410.569 544.248 410.758 543.779 410.762H481.073C480.603 410.759 480.153 410.571 479.822 410.238C479.49 409.905 479.304 409.455 479.304 408.985V399.929H545.547Z" fill="#3F3D56"/>
<path d="M648.92 167.532V339.001C648.918 341.186 648.049 343.281 646.503 344.826C644.956 346.371 642.86 347.24 640.673 347.242H386.387C384.2 347.24 382.103 346.371 380.557 344.826C379.011 343.281 378.141 341.186 378.14 339.001V167.532C378.145 165.349 379.016 163.257 380.562 161.714C382.107 160.171 384.202 159.303 386.387 159.3H640.673C642.858 159.303 644.953 160.171 646.498 161.714C648.044 163.257 648.915 165.349 648.92 167.532Z" fill="#3F3D56"/>
<path d="M642.955 169.665V336.885C642.953 338.053 642.488 339.172 641.662 339.997C640.835 340.823 639.716 341.288 638.547 341.29H388.504C387.335 341.288 386.215 340.823 385.389 339.997C384.563 339.172 384.098 338.053 384.096 336.885V169.665C384.096 168.497 384.56 167.375 385.387 166.548C386.213 165.721 387.334 165.254 388.504 165.252H638.547C639.717 165.254 640.838 165.721 641.664 166.548C642.491 167.375 642.955 168.497 642.955 169.665Z" fill="white"/>
<path d="M596.551 410.148C596.296 410.467 595.973 410.724 595.605 410.9C595.237 411.076 594.833 411.167 594.425 411.165H445.665C445.258 411.164 444.857 411.073 444.49 410.898C444.122 410.723 443.799 410.468 443.543 410.152C443.286 409.837 443.104 409.468 443.008 409.073C442.912 408.678 442.906 408.266 442.99 407.868L445.299 396.908C445.394 396.461 445.601 396.045 445.898 395.698C446.196 395.351 446.576 395.083 447.003 394.921C447.313 394.799 447.642 394.737 447.974 394.738H592.125C592.457 394.737 592.787 394.799 593.096 394.921C593.524 395.083 593.904 395.351 594.201 395.698C594.499 396.045 594.705 396.461 594.801 396.908L597.11 407.868C597.192 408.266 597.185 408.677 597.088 409.071C596.991 409.466 596.808 409.834 596.551 410.148Z" fill="#2F2E41"/>
<path d="M396.618 188.287H630.583C630.826 188.282 631.058 188.182 631.228 188.008C631.398 187.834 631.493 187.601 631.493 187.357C631.493 187.114 631.398 186.881 631.228 186.707C631.058 186.533 630.826 186.433 630.583 186.428H396.618C396.375 186.433 396.144 186.533 395.974 186.707C395.803 186.881 395.708 187.114 395.708 187.357C395.708 187.601 395.803 187.834 395.974 188.008C396.144 188.182 396.375 188.282 396.618 188.287Z" fill="#3F3D56"/>
<path d="M614.657 181.681C611.645 181.681 609.204 179.187 609.204 176.111C609.204 173.034 611.645 170.541 614.657 170.541C617.668 170.541 620.109 173.034 620.109 176.111C620.109 179.187 617.668 181.681 614.657 181.681Z" fill="#3F3D56"/>
<path d="M595.82 181.681C592.809 181.681 590.368 179.187 590.368 176.111C590.368 173.034 592.809 170.541 595.82 170.541C598.832 170.541 601.273 173.034 601.273 176.111C601.273 179.187 598.832 181.681 595.82 181.681Z" fill="#3F3D56"/>
<path d="M576.984 181.681C573.972 181.681 571.531 179.187 571.531 176.111C571.531 173.034 573.972 170.541 576.984 170.541C579.995 170.541 582.437 173.034 582.437 176.111C582.437 179.187 579.995 181.681 576.984 181.681Z" fill="#3F3D56"/>
<path d="M407.961 171.918H421.34C421.604 171.924 421.856 172.034 422.04 172.223C422.225 172.412 422.329 172.666 422.329 172.93C422.329 173.194 422.225 173.448 422.04 173.637C421.856 173.826 421.604 173.936 421.34 173.942H407.961C407.695 173.938 407.441 173.83 407.254 173.64C407.067 173.451 406.963 173.196 406.963 172.93C406.963 172.664 407.067 172.409 407.254 172.219C407.441 172.03 407.695 171.922 407.961 171.918Z" fill="#3F3D56"/>
<path d="M407.961 175.718H421.34C421.604 175.724 421.856 175.833 422.041 176.022C422.226 176.211 422.33 176.465 422.33 176.73C422.33 176.994 422.226 177.249 422.041 177.438C421.856 177.627 421.604 177.736 421.34 177.742H407.961C407.695 177.739 407.44 177.631 407.253 177.441C407.065 177.252 406.96 176.996 406.96 176.73C406.96 176.464 407.065 176.208 407.253 176.019C407.44 175.829 407.695 175.721 407.961 175.718Z" fill="#3F3D56"/>
<path d="M407.961 179.518H421.34C421.604 179.524 421.856 179.634 422.04 179.823C422.225 180.012 422.329 180.266 422.329 180.53C422.329 180.794 422.225 181.048 422.04 181.237C421.856 181.426 421.604 181.536 421.34 181.542H407.961C407.695 181.538 407.441 181.43 407.254 181.24C407.067 181.051 406.963 180.796 406.963 180.53C406.963 180.264 407.067 180.009 407.254 179.819C407.441 179.63 407.695 179.522 407.961 179.518Z" fill="#3F3D56"/>
<path d="M85.4257 403.904C85.022 405.078 84.2562 406.095 83.2382 406.807C82.2202 407.52 81.0025 407.892 79.7598 407.87L55.4841 407.245C54.2324 407.221 53.0221 406.792 52.0342 406.024C51.0464 405.255 50.334 404.188 50.0036 402.981L46.5683 366.274C45.3495 366.826 44.0226 367.098 42.6849 367.072C41.5226 367.043 40.3775 366.785 39.3149 366.314C38.2523 365.842 37.293 365.166 36.4918 364.324C35.6906 363.483 35.0632 362.491 34.6454 361.407C34.2276 360.323 34.0275 359.167 34.0567 358.006C34.0859 356.844 34.3437 355.7 34.8154 354.638C35.2871 353.577 35.9635 352.618 36.806 351.817C37.6485 351.017 38.6405 350.39 39.7254 349.972C40.8103 349.555 41.967 349.355 43.1292 349.384C43.6639 349.382 44.1973 349.438 44.7202 349.549C45.2888 348.935 45.98 348.446 46.7492 348.114C47.5185 347.782 48.3487 347.615 49.1865 347.624L86.5281 348.587C86.8378 348.599 87.146 348.637 87.4492 348.702C88.2681 348.854 89.0448 349.18 89.727 349.658C90.4092 350.135 90.9811 350.754 91.4042 351.471C91.8273 352.188 92.0919 352.987 92.1799 353.815C92.268 354.642 92.1775 355.479 91.9147 356.269L85.4257 403.904ZM45.8638 363.782L43.4193 355.035C43.1413 354.024 43.1348 352.959 43.4007 351.945C43.2821 351.945 43.1774 351.888 43.0588 351.888C41.3827 351.853 39.7613 352.484 38.55 353.643C37.3387 354.801 36.6365 356.392 36.5972 358.066C36.558 359.741 37.185 361.363 38.3407 362.577C39.4963 363.79 41.0864 364.496 42.7623 364.54C43.8459 364.574 44.9182 364.312 45.8638 363.782Z" fill="#2F2E41"/>
<path d="M87.4493 348.701C86.6537 353.247 77.7094 356.442 66.9544 355.887C57.0645 355.432 48.978 351.961 47.4965 347.849C48.0448 347.687 48.615 347.611 49.1866 347.624L86.5282 348.587C86.8379 348.599 87.1461 348.637 87.4493 348.701Z" fill="#3F3D56"/>
<path d="M64.9833 383.733C64.9342 383.721 64.8875 383.7 64.8451 383.672L59.5731 380.224C59.5094 380.183 59.457 380.126 59.4208 380.059C59.3845 379.992 59.3655 379.917 59.3655 379.841C59.3654 379.765 59.3844 379.691 59.4206 379.624C59.4568 379.557 59.5092 379.5 59.5729 379.459L65.0524 375.872C65.1027 375.839 65.1591 375.816 65.2183 375.804C65.2775 375.793 65.3384 375.793 65.3974 375.806C65.4565 375.818 65.5126 375.841 65.5625 375.875C65.6124 375.909 65.6551 375.952 65.6881 376.003C65.7212 376.053 65.7439 376.11 65.7551 376.169C65.7663 376.228 65.7657 376.289 65.7533 376.348C65.7409 376.407 65.7169 376.463 65.6828 376.513C65.6487 376.562 65.6051 376.605 65.5545 376.638L60.6604 379.841L65.3466 382.906C65.4373 382.966 65.5041 383.055 65.535 383.159C65.5659 383.263 65.5589 383.374 65.5153 383.473C65.4718 383.573 65.3944 383.653 65.297 383.701C65.1996 383.748 65.0885 383.76 64.9834 383.733H64.9833Z" fill="#C9CA3D"/>
<path d="M73.3099 384.117C73.2215 384.095 73.1417 384.046 73.0808 383.978C73.02 383.91 72.9808 383.826 72.9684 383.735C72.956 383.645 72.9709 383.553 73.0112 383.471C73.0514 383.389 73.1152 383.321 73.1944 383.276L78.0539 380.492L73.357 377.006C73.3087 376.97 73.268 376.925 73.2372 376.873C73.2063 376.822 73.1859 376.765 73.1771 376.705C73.1683 376.646 73.1714 376.585 73.1861 376.527C73.2007 376.469 73.2267 376.414 73.2626 376.366C73.2984 376.317 73.3435 376.277 73.3951 376.246C73.4467 376.215 73.5038 376.195 73.5633 376.186C73.6228 376.177 73.6834 376.18 73.7417 376.195C73.8 376.209 73.8549 376.235 73.9031 376.271L79.1618 380.175C79.2229 380.22 79.2717 380.279 79.3039 380.348C79.3361 380.417 79.3507 380.493 79.3462 380.569C79.3417 380.645 79.3184 380.718 79.2783 380.783C79.2382 380.847 79.1827 380.901 79.1167 380.939L73.6504 384.07C73.5473 384.129 73.4252 384.146 73.3099 384.117Z" fill="#C9CA3D"/>
<path d="M65.5076 386.755C65.4633 386.744 65.421 386.726 65.3821 386.702C65.3307 386.671 65.2859 386.63 65.2503 386.581C65.2147 386.533 65.1891 386.477 65.1749 386.419C65.1606 386.361 65.158 386.3 65.1672 386.241C65.1764 386.181 65.1973 386.124 65.2286 386.073L72.7019 373.795C72.7652 373.691 72.8671 373.617 72.9852 373.589C73.1032 373.56 73.2277 373.58 73.3314 373.643C73.4351 373.706 73.5095 373.808 73.5383 373.926C73.5671 374.043 73.5478 374.168 73.4848 374.272L66.0116 386.549C65.9606 386.633 65.8841 386.698 65.7934 386.735C65.7028 386.772 65.6026 386.779 65.5076 386.755Z" fill="#C9CA3D"/>
<path d="M485.646 238.832H526.14C527.792 238.832 529.131 240.17 529.131 241.821V245.774C529.131 247.425 527.792 248.763 526.14 248.763H485.646C483.994 248.763 482.655 247.425 482.655 245.774V241.821C482.655 240.17 483.994 238.832 485.646 238.832Z" fill="#C9CA3D"/>
<path d="M462.042 258.694H549.744C551.396 258.694 552.735 260.032 552.735 261.683V265.636C552.735 267.287 551.396 268.625 549.744 268.625H462.042C460.39 268.625 459.051 267.287 459.051 265.636V261.683C459.051 260.032 460.39 258.694 462.042 258.694Z" fill="#E6E6E6"/>
<path d="M462.042 278.556H549.744C551.396 278.556 552.735 279.894 552.735 281.545V285.498C552.735 287.149 551.396 288.487 549.744 288.487H462.042C460.39 288.487 459.051 287.149 459.051 285.498V281.545C459.051 279.894 460.39 278.556 462.042 278.556Z" fill="#E6E6E6"/>
<path d="M454.608 345.067L454.409 345.694L454.399 345.715L448.419 363.88L441.541 384.813L428.6 424.151L428.474 430.262V430.283L427.513 479.44L430.178 486.104L427.178 497.031C427.178 497.031 428.558 480.515 435.959 489.999C440.151 495.389 445.053 500.905 449.078 506.075C443.213 508.446 437.255 510.591 431.203 512.51C429.896 512.928 428.579 513.325 427.262 513.722C426.979 513.805 426.697 513.889 426.415 513.972C406.352 519.901 385.61 523.233 364.698 523.885C363.611 523.917 362.545 523.937 361.51 523.958C361.144 523.969 360.789 523.979 360.433 523.979C359.262 523.99 358.102 524 356.931 524C354.569 524 352.217 523.965 349.875 523.896C332.544 523.408 315.314 521.079 298.476 516.949C298.591 510.003 298.905 501.887 299.354 493.217C299.563 488.965 304.257 484.359 304.539 479.909C304.738 476.566 300.525 473.422 300.744 470.027C302.166 449.125 303.943 457.149 305.26 442.348C305.396 440.896 305.522 439.506 305.637 438.18C306.483 428.674 307.069 422.731 307.069 422.731L301.445 387.309L292.612 331.697L293.291 330.579L294.054 330.203L340.645 307.16L343.175 300.683C343.912 298.818 345.191 297.215 346.847 296.081C348.503 294.947 350.46 294.335 352.468 294.322L383.159 294.197C384.752 294.189 386.323 294.562 387.743 295.283C389.163 296.004 390.39 297.053 391.323 298.343L399.633 309.844L454.608 345.067Z" fill="#3F3D56"/>
<path d="M421.523 415.398L428.474 430.262L433.22 440.415L441.384 483.128L445.471 487.462L448.973 472.116L485.625 480.248C486.827 473.574 485.947 480.474 486.689 473.152C486.48 472.943 486.261 472.734 486.041 472.525C485.456 471.982 484.964 471.47 484.975 470.979C485.393 445.722 484.139 402.738 473.664 376.696C472.024 372.445 469.861 368.413 467.225 364.694C467.016 364.412 466.817 364.13 466.619 363.848C461.789 357.09 458.737 350.436 454.409 345.704V345.694C454.382 345.672 454.358 345.648 454.336 345.621C454.32 345.613 454.306 345.602 454.294 345.589L424.565 329.837L423.289 365.645L422.38 391.383L421.523 415.398Z" fill="#3F3D56"/>
<path d="M314.324 419.62L305.641 438.185L302.61 444.65L294.448 487.359L290.374 491.683L286.864 476.341L285.215 476.003L255.472 469.847L246.803 497.36C244.849 494.106 244.079 490.279 244.624 486.524C245.168 482.769 246.993 479.317 249.791 476.752C250.383 476.217 250.877 475.696 250.862 475.203C250.369 445.495 252.187 391.25 268.61 368.924C273.825 361.839 276.955 354.782 281.508 349.852C281.522 349.838 281.522 349.824 281.536 349.824L292.616 331.695L293.292 330.582L294.053 330.202L314.324 419.62Z" fill="#3F3D56"/>
<path d="M366.927 285.469C344.377 285.469 326.096 267.201 326.096 244.668C326.096 222.134 344.377 203.867 366.927 203.867C389.477 203.867 407.758 222.134 407.758 244.668C407.758 267.201 389.477 285.469 366.927 285.469Z" fill="#FFB6B6"/>
<path d="M311.739 216.169C312.056 215.831 312.437 215.56 312.861 215.373C313.284 215.186 313.741 215.086 314.204 215.079L313.59 213.376C313.39 212.839 313.336 212.259 313.433 211.695C313.531 211.131 313.777 210.603 314.147 210.165C314.516 209.727 314.995 209.395 315.535 209.203C316.075 209.011 316.656 208.966 317.219 209.072L319.455 209.503L319.244 208.01C319.163 207.454 319.229 206.887 319.434 206.364C319.639 205.841 319.977 205.38 320.414 205.027C320.851 204.674 321.373 204.441 321.928 204.351C322.483 204.261 323.051 204.316 323.578 204.512C324.058 204.701 324.573 204.78 325.087 204.743C325.6 204.707 326.099 204.556 326.547 204.302C326.997 204.055 327.387 203.714 327.691 203.301C327.995 202.888 328.205 202.414 328.307 201.912L329.086 198.157L329.168 197.956C332.962 191.638 340.256 187.041 349.181 185.356C357.126 183.845 365.272 184.615 373.125 185.338C376.241 185.631 379.76 185.961 382.692 187.755C385.184 189.294 387.292 192.37 386.861 195.475C394.604 193.103 402.906 197.837 407.021 203.807C411.896 210.913 412.693 219.813 412.821 226.772C413.17 243.236 409.77 256.705 402.741 266.814C402.228 267.547 402.1 269.076 401.083 269.589L401.294 269.25C400.157 269.818 399.003 270.734 399.433 271.713C400.671 274.534 392.451 280.769 386.66 282.83C376.094 286.593 362.047 286.273 352.168 284.917L351.82 282.582C348.256 282.097 345.745 281.172 345.039 279.725C343.793 278.663 342.73 277.711 341.804 276.832L341.795 276.823C341.777 276.804 341.74 276.777 341.722 276.759C337.259 272.482 336.224 270.047 335.757 266.338C335.308 262.703 336.105 259.013 336.92 255.689C319.748 258.345 343.683 237.412 327.684 233.365C327.5 233.309 327.313 233.263 327.125 233.228C326.657 233.118 326.19 233.008 325.741 232.88C323.576 232.293 321.504 231.408 319.583 230.252C315.111 227.532 313.636 223.924 311.327 219.859C310.994 219.28 310.854 218.61 310.928 217.946C311.002 217.283 311.286 216.66 311.739 216.169Z" fill="#2F2E41"/>
<path d="M222.514 422.524C222.523 424.127 222.542 426.37 222.615 429.145C222.624 429.529 222.633 429.923 222.643 430.326C222.762 435.426 222.881 439.702 223.073 444.455C223.082 444.784 223.092 445.105 223.11 445.435C223.367 452.064 223.77 459.783 224.466 472.007C225.758 494.588 228.012 475.111 230.276 483.032C230.386 483.426 230.505 483.893 230.615 484.442C230.958 486.436 231.536 488.381 232.338 490.238C233.538 490.953 234.775 491.639 235.994 492.326C239.467 494.258 242.995 496.117 246.55 497.884C248.548 498.873 250.554 499.844 252.57 500.778C252.891 500.924 253.203 501.071 253.514 501.208C263.838 505.98 274.477 510.036 285.357 513.35C287.483 513.991 289.6 514.614 291.744 515.19C293.98 515.813 296.216 516.399 298.479 516.949C315.317 521.079 332.547 523.409 349.877 523.898C352.214 523.972 354.569 523.999 356.933 523.999C358.106 523.999 359.261 523.99 360.434 523.981C360.791 523.981 361.148 523.972 361.506 523.963C362.541 523.935 363.613 523.917 364.695 523.889C385.607 523.237 406.348 519.905 426.411 513.973L427.263 513.725C428.582 513.322 429.893 512.929 431.203 512.507C437.251 510.594 443.21 508.451 449.081 506.079C453.562 504.276 457.991 502.34 462.368 500.274C462.408 500.263 462.446 500.245 462.478 500.219C463.394 499.798 464.32 499.358 465.236 498.91C465.355 498.846 465.484 498.782 465.612 498.717C469.03 497.051 472.411 495.305 475.756 493.48C478.569 487.024 482.528 485.788 484.984 480.111C485.698 478.424 486.215 476.661 486.523 474.855C486.523 474.837 486.532 474.818 486.532 474.791C486.276 478.197 487.623 468.748 486.541 474.754C486.551 474.644 486.56 474.525 486.569 474.388C486.596 474.058 486.633 473.656 486.688 473.152C489.831 442.486 489.629 407.416 490.995 378.517C491.086 376.649 491.181 374.861 491.279 373.151C491.306 372.584 491.343 372.025 491.38 371.476C491.316 371.311 491.242 371.137 491.16 370.972C491.142 370.925 491.121 370.879 491.096 370.835C491.069 370.778 491.038 370.723 491.004 370.67C490.986 370.643 490.958 370.606 490.94 370.578C490.926 370.547 490.911 370.516 490.894 370.487C490.812 370.359 490.72 370.221 490.619 370.093C490.573 370.038 490.537 369.992 490.491 369.947C490.459 369.9 490.422 369.857 490.381 369.818C490.353 369.774 490.319 369.734 490.28 369.699C490.243 369.663 490.207 369.617 490.161 369.571C490.141 369.542 490.116 369.518 490.088 369.498C490.015 369.415 489.935 369.338 489.849 369.269C489.522 368.968 489.173 368.693 488.805 368.445C488.677 368.363 488.539 368.28 488.411 368.189C487.487 367.637 486.515 367.171 485.506 366.797C485.158 366.669 484.81 366.55 484.434 366.421C484.296 366.385 484.168 366.339 484.031 366.293C483.829 366.229 483.627 366.165 483.417 366.119C482.372 365.808 481.245 365.542 480.026 365.295C479.88 365.268 479.724 365.24 479.568 365.203C479.348 365.158 479.119 365.121 478.89 365.084C478.578 365.029 478.258 364.975 477.937 364.92C475.215 364.489 472.127 364.169 468.718 363.958C468.398 363.94 468.077 363.922 467.756 363.903C467.381 363.885 467.005 363.867 466.62 363.848C466.299 363.83 465.969 363.821 465.64 363.812C465.319 363.793 464.989 363.784 464.65 363.775C463.724 363.748 462.771 363.72 461.8 363.702C459.033 363.647 456.119 363.665 453.058 363.729C451.638 363.766 450.19 363.802 448.705 363.867C448.605 363.867 448.513 363.876 448.421 363.876C447.129 363.922 445.828 363.976 444.49 364.05C443.556 364.095 442.612 364.141 441.668 364.196C440.779 364.251 439.881 364.306 438.974 364.37C438.268 364.407 437.563 364.462 436.848 364.508C436.243 364.553 435.638 364.599 435.034 364.636L434.209 364.691C433.76 364.727 433.311 364.755 432.853 364.801C431.845 364.883 430.837 364.965 429.81 365.048C428.793 365.139 427.758 365.231 426.722 365.322C425.687 365.414 424.642 365.515 423.598 365.616C423.488 365.625 423.387 365.634 423.286 365.643C422.333 365.744 421.38 365.835 420.418 365.936C420.198 365.954 419.969 365.973 419.749 366C418.832 366.092 417.896 366.2 416.971 366.298C416.686 366.329 416.404 366.359 416.119 366.39C415.394 366.469 414.679 366.537 413.949 366.623C412.986 366.733 412.006 366.833 411.053 366.962C410.311 367.044 409.568 367.126 408.826 367.218C407.662 367.355 406.48 367.502 405.298 367.657C404.849 367.712 404.4 367.767 403.951 367.831C400.579 368.253 397.17 368.72 393.706 369.205C388.456 369.947 383.123 370.752 377.753 371.622C372.374 372.492 366.964 373.411 361.524 374.379C360.15 374.626 358.775 374.873 357.392 375.129C356.768 375.248 356.145 375.367 355.522 375.486C354.459 375.679 353.396 375.88 352.333 376.082C351.27 376.283 350.207 376.484 349.144 376.695C347.88 376.942 346.606 377.19 345.342 377.437C337.012 379.085 328.728 380.843 320.646 382.684C319.317 382.986 317.989 383.297 316.669 383.599C314.03 384.213 311.415 384.835 308.825 385.467C308.11 385.632 307.405 385.806 306.699 385.98C304.94 386.42 303.18 386.859 301.449 387.308L301.146 387.39C299.872 387.701 298.626 388.022 297.38 388.352C294.438 389.121 291.546 389.899 288.702 390.687C286.815 391.208 284.948 391.737 283.103 392.271C280.345 393.067 277.642 393.873 275.012 394.688C274.361 394.889 273.711 395.091 273.069 395.283C271.145 395.878 269.248 396.483 267.406 397.087C265.94 397.563 264.511 398.049 263.099 398.534C261.688 399.019 260.305 399.504 258.948 399.99C258.078 400.301 257.217 400.631 256.355 400.942C255.118 401.4 253.899 401.858 252.708 402.316C252.342 402.453 251.984 402.599 251.627 402.737C251.398 402.837 251.178 402.92 250.958 403.011C250.527 403.185 250.087 403.35 249.666 403.524C249.235 403.689 248.814 403.863 248.392 404.046C247.98 404.211 247.558 404.385 247.155 404.559C246.743 404.724 246.339 404.898 245.936 405.081C245.597 405.218 245.267 405.365 244.947 405.511C244.296 405.795 243.645 406.079 243.013 406.372C242.702 406.519 242.39 406.656 242.078 406.802L241.364 407.132C241.263 407.187 241.162 407.233 241.061 407.279C240.832 407.388 240.594 407.507 240.365 407.617C239.833 407.865 239.311 408.13 238.798 408.377C238.111 408.725 237.442 409.073 236.8 409.412C236.15 409.76 235.517 410.108 234.913 410.447C234.812 410.502 234.72 410.557 234.619 410.612C234.482 410.685 234.344 410.767 234.207 410.84C233.74 411.106 233.291 411.381 232.842 411.646C231.962 412.186 231.128 412.718 230.349 413.249C230.175 413.368 230.01 413.487 229.836 413.597C229.259 414.009 228.709 414.412 228.196 414.824C228.196 414.833 228.196 414.833 228.187 414.833C228.012 414.961 227.848 415.098 227.683 415.226C227.545 415.355 227.399 415.465 227.261 415.593C226.785 416.005 226.345 416.398 225.942 416.801C225.806 416.926 225.678 417.057 225.557 417.195C225.503 417.239 225.454 417.288 225.41 417.342C225.227 417.525 225.062 417.708 224.906 417.891C224.882 417.916 224.86 417.944 224.842 417.973C224.622 418.23 224.42 418.486 224.228 418.743C224.136 418.871 224.036 418.999 223.953 419.127C223.843 419.283 223.733 419.448 223.642 419.603C223.559 419.732 223.486 419.869 223.412 419.997C223.218 420.327 223.052 420.673 222.918 421.032C222.815 421.275 222.732 421.526 222.67 421.783C222.601 422.026 222.549 422.274 222.514 422.524Z" fill="#2F2E41"/>
<path opacity="0.2" d="M222.514 422.524C222.524 424.127 222.542 426.37 222.615 429.145C222.624 429.529 222.643 429.923 222.652 430.326C222.744 434.218 222.881 439.025 223.073 444.455C223.083 444.784 223.092 445.105 223.11 445.435C223.367 452.064 223.77 459.783 224.466 472.007C225.758 494.588 228.013 475.111 230.276 483.032C236.562 479.168 243.453 475.121 250.82 470.963C252.149 470.213 253.49 469.459 254.843 468.702C269.578 460.488 286.036 451.881 303.217 443.356C303.895 443.017 304.582 442.678 305.261 442.349C344.618 422.909 387.576 404 422.379 391.382C429.096 388.947 435.51 386.749 441.54 384.817C454.24 380.761 465.218 377.922 473.667 376.695C482.464 375.413 488.539 375.871 490.995 378.517C491.087 376.649 491.181 374.861 491.279 373.151C491.316 372.584 491.352 372.025 491.389 371.476C491.332 371.325 491.259 371.181 491.188 371.036C491.178 371.015 491.17 370.993 491.16 370.972C491.142 370.925 491.121 370.879 491.096 370.835C491.069 370.778 491.038 370.723 491.004 370.67C490.974 370.605 490.937 370.544 490.894 370.487C490.812 370.359 490.72 370.221 490.619 370.093C490.545 369.997 490.466 369.905 490.381 369.818C490.353 369.774 490.319 369.734 490.28 369.699C490.243 369.663 490.207 369.617 490.161 369.571C490.141 369.542 490.117 369.517 490.088 369.498C490.015 369.415 489.935 369.338 489.849 369.269C489.522 368.968 489.173 368.693 488.805 368.445C488.677 368.362 488.539 368.28 488.411 368.188C487.487 367.636 486.515 367.171 485.506 366.797C485.158 366.668 484.81 366.549 484.434 366.421C484.296 366.385 484.168 366.339 484.031 366.293C483.829 366.229 483.627 366.165 483.417 366.119C482.372 365.808 481.245 365.542 480.026 365.295C479.66 365.222 479.275 365.148 478.89 365.084C478.578 365.029 478.258 364.974 477.937 364.92C475.215 364.489 472.127 364.169 468.718 363.958C468.398 363.94 468.077 363.921 467.756 363.903C467.381 363.885 467.005 363.866 466.62 363.848C466.299 363.83 465.969 363.821 465.64 363.812C465.319 363.793 464.989 363.784 464.65 363.775C463.724 363.747 462.771 363.72 461.8 363.702C459.033 363.656 456.119 363.674 453.058 363.738C451.638 363.766 450.19 363.812 448.705 363.876C448.614 363.876 448.513 363.885 448.421 363.885C447.129 363.921 445.819 363.986 444.49 364.05C443.556 364.095 442.612 364.141 441.668 364.196C440.779 364.251 439.881 364.306 438.974 364.37C438.268 364.407 437.563 364.462 436.848 364.507C436.243 364.553 435.638 364.599 435.034 364.636C434.31 364.691 433.586 364.746 432.853 364.8C431.845 364.883 430.837 364.965 429.81 365.048C428.793 365.139 427.758 365.231 426.722 365.322C425.687 365.414 424.642 365.515 423.598 365.615C423.488 365.625 423.387 365.634 423.286 365.643C422.333 365.744 421.38 365.835 420.418 365.936C415.085 366.476 409.596 367.108 403.951 367.831C400.579 368.262 397.164 368.723 393.706 369.214C388.456 369.956 383.123 370.761 377.753 371.622C372.374 372.492 366.964 373.411 361.524 374.378C360.15 374.626 358.775 374.873 357.392 375.129C355.705 375.441 354.019 375.758 352.333 376.082C351.27 376.283 350.207 376.484 349.144 376.695C347.88 376.942 346.606 377.19 345.342 377.437C337.012 379.085 328.728 380.843 320.646 382.684C319.317 382.986 317.989 383.297 316.669 383.599C314.03 384.213 311.415 384.835 308.825 385.467C308.11 385.641 307.405 385.815 306.699 385.989C304.931 386.429 303.18 386.868 301.449 387.308V387.317C301.348 387.335 301.247 387.363 301.146 387.39C299.882 387.711 298.626 388.031 297.38 388.361C294.439 389.13 291.546 389.905 288.702 390.686C286.815 391.218 284.945 391.74 283.103 392.271C280.345 393.076 277.642 393.882 275.012 394.688C274.361 394.889 273.711 395.091 273.069 395.283C271.145 395.888 269.257 396.489 267.406 397.087C265.94 397.563 264.511 398.048 263.099 398.534C261.688 399.019 260.305 399.504 258.948 399.99C258.069 400.301 257.207 400.622 256.355 400.933C255.109 401.391 253.899 401.849 252.708 402.316C252.342 402.453 251.984 402.599 251.627 402.737C250.958 402.993 250.307 403.259 249.666 403.524C249.235 403.689 248.814 403.863 248.392 404.046C247.98 404.211 247.558 404.385 247.155 404.559C246.743 404.724 246.339 404.898 245.936 405.081C245.597 405.218 245.267 405.365 244.947 405.511C244.296 405.795 243.645 406.079 243.013 406.372C242.702 406.518 242.39 406.656 242.078 406.802L241.364 407.132C241.263 407.187 241.162 407.233 241.061 407.278C240.282 407.645 239.531 408.011 238.798 408.377C238.111 408.725 237.442 409.073 236.8 409.412C236.04 409.815 235.316 410.209 234.619 410.612C234.482 410.685 234.345 410.767 234.207 410.84C233.74 411.106 233.291 411.381 232.842 411.646C231.962 412.186 231.128 412.717 230.349 413.249C229.579 413.78 228.865 414.302 228.196 414.824C228.196 414.833 228.196 414.833 228.187 414.833C227.866 415.089 227.554 415.345 227.261 415.593C226.785 416.005 226.345 416.398 225.942 416.801C225.806 416.926 225.678 417.057 225.557 417.195C225.503 417.239 225.454 417.288 225.41 417.342C225.218 417.552 225.025 417.763 224.842 417.973C224.622 418.23 224.42 418.486 224.228 418.743C224.136 418.871 224.036 418.999 223.953 419.127C223.843 419.283 223.733 419.448 223.642 419.603C223.559 419.732 223.486 419.869 223.412 419.997C223.218 420.327 223.052 420.673 222.918 421.032C222.817 421.276 222.735 421.527 222.67 421.783C222.601 422.026 222.549 422.274 222.514 422.524Z" fill="black"/>
</g>
<defs>
<clipPath id="clip0_53_45">
<rect width="721" height="524" fill="white" transform="matrix(-1 0 0 1 721 0)"/>
</clipPath>
</defs>
</svg>
