<svg width="233" height="233" viewBox="0 0 233 233" fill="none" xmlns="http://www.w3.org/2000/svg">
<path d="M175.912 26.5767H106.474C88.3117 26.5767 73.4982 41.1392 72.7193 58.9783H102.762C123.033 58.9783 139.437 75.529 139.437 95.7956V116.219C139.457 119.129 139.149 122.033 138.519 124.874H167.196C167.269 124.901 167.333 124.949 167.378 125.012L190.769 146.175C194.551 149.605 196.386 148.414 194.851 143.544L188.176 122.471C194.519 119.996 199.967 115.667 203.806 110.046C207.647 104.425 209.702 97.7757 209.7 90.9691V60.5217C209.7 41.8674 194.574 26.5769 175.912 26.5769L175.912 26.5767Z" fill="#C9CA3D"/>
<path d="M102.76 66.6247H52.6314C36.4592 66.6247 23.2983 79.6218 23.2983 95.7967V116.22C23.3074 122.324 25.2149 128.271 28.7579 133.239C32.3011 138.207 37.3043 141.949 43.0707 143.944L39.5211 155.397C38.0103 160.276 39.841 161.426 43.5883 157.946L55.9666 146.543L55.9653 146.544C56.2644 146.279 56.5192 145.969 56.7233 145.626H102.757C110.547 145.601 118.01 142.495 123.518 136.985C129.026 131.476 132.129 124.011 132.152 116.22V95.7964C132.152 79.6216 118.932 66.6245 102.757 66.6245L102.76 66.6247Z" fill="#C9CA3D"/>
</svg>
